<svg version="1.1" id="Capa_1" xmlns="http://www.w3.org/2000/svg" xmlns:xlink="http://www.w3.org/1999/xlink" x="0px" y="0px"
	 viewBox="0 0 16 16" style="enable-background:new 0 0 16 16;" xml:space="preserve">
<style type="text/css">
	.st0{fill:#FEF4DE;}
	.st1{fill:#30332D;}
</style>
<rect class="st0" width="16" height="16"/>
<g>
	<path class="st1" d="M3.7,2.7c0.3,0.1,0.9,0,0.9-0.4C4.4,1.2,2.7,2.1,3.7,2.7z"/>
	<path class="st1" d="M5.5,3.9C4.8,4.1,2.2,3.3,2.4,4.2c0.2,0.4,1,0,1.1,0.4c-0.1,1.1,1.1,9.2-1,7.9c-2.8-1.3,0.1,3,2-0.6
		C5,9.6,4.6,7.1,4.8,4.7C5.1,4.3,6.6,4.6,5.5,3.9z"/>
	<path class="st1" d="M14.5,4.1c-0.6-0.1-2.2-0.2-2.2,0.6c-0.3,0.7-1.6,4.8-2.1,3.3C9.2,6,9.5,3.6,6.5,4.4C6.4,5,8.1,4.5,7.6,5.6
		c-0.2,1.5,0.1,3.5-0.7,4.7c-2.3,0.2,2.1,1,2,0.3c-0.9-0.2-1.1-0.9-0.9-1.8c0.1-0.5-0.3-3.3,0.4-2.7c2.3,4.9,1.3,6.4,3.8,0.4
		c0.9-1.3,0.8,4.2-0.1,4.2c-0.7,0.3,0.6,0.3,0.7,0.2c0.5,0,3,0,1.2-0.4c-1-0.8-0.1-3.6-0.4-5C13,4.3,15.3,4.7,14.5,4.1z"/>
</g>
<g>
	<path class="st1" d="M15.7,0.3v15.4H0.3V0.3H15.7 M16,0H0v16h16V0L16,0z"/>
</g>
</svg>
