<?xml version="1.0" encoding="utf-8"?>
<!-- Generator: Adobe Illustrator 27.4.0, SVG Export Plug-In . SVG Version: 6.00 Build 0)  -->
<svg version="1.1" id="Capa_1" xmlns="http://www.w3.org/2000/svg" xmlns:xlink="http://www.w3.org/1999/xlink" x="0px" y="0px"
	 viewBox="0 0 500 100" style="enable-background:new 0 0 500 100;" xml:space="preserve" fill="#292e35">
<g>
	<path d="M30.3,14.6c0.7,0.2,2,0.5,2.9,0.4c1.2-0.2,1.9-0.3,2.5-1c0.5-0.7,1.2-1.4,1.1-2.4C36.7,10.6,36,9.6,35.4,9
		c-0.4-0.5-1-0.5-1.6-0.7c-0.6-0.2-1.1-0.6-1.8-0.5c-1.2,0.2-2.2,0.4-3,1.3c-0.7,0.8-1.4,2-0.9,3C28.8,13.6,29.1,14.2,30.3,14.6z"/>
	<path d="M43.3,23.7c-0.2,0-0.5,0-1.1-0.1c-0.5,0-1,0-1.6-0.1c-0.6,0-1.1,0-1.6-0.1c-0.5,0-0.9,0-1.1,0h-0.3c-0.6,0-1.1,0.1-1.6,0.3
		c-0.5,0.2-1,0.3-1.5,0.3c-1.2,0-2.4-0.1-3.6-0.2c-1.2-0.1-2.4-0.2-3.6-0.3h-1c-0.1,0-0.2-0.1-0.4-0.1c-0.2,0-0.5-0.1-0.7-0.2
		c-0.3-0.1-0.5-0.1-0.7-0.2c-0.2,0-0.4-0.1-0.4-0.1h-1.5H21c-0.1,0-0.3,0.2-0.6,0.5c-0.3,0.3-0.4,0.5-0.4,0.5c0,0.1-0.1,0.2-0.1,0.4
		c0,0.2,0,0.4,0,0.5c0,0.6,0.1,1.1,0.2,1.5c0.1,0.4,0.5,0.7,1.1,0.9c0.2,0,0.4,0.1,0.7,0.3c0.3,0.1,0.5,0.2,0.5,0.2h4.8
		c0,0,0.1,0,0.2,0.1c0.1,0.1,0.2,0.2,0.3,0.2c0,0,0.1,0.1,0.2,0.3c0.1,0.1,0.2,0.3,0.3,0.5c0.1,0.2,0.2,0.3,0.2,0.4
		c0.1,0.1,0.1,0.2,0.1,0.3c0,0.1,0.1,0.3,0.1,0.7c0,0.4,0.1,0.7,0.1,1.2c0.1,0.4,0.1,0.8,0.2,1.3c0,0.4,0.1,0.7,0.1,0.9v1.5
		c0,1.2,0,2.4-0.1,3.6c-0.1,1.2-0.1,2.4-0.1,3.7c0,0.7,0.1,1.4,0.2,2.1c0.1,0.7,0.2,1.5,0.2,2.2c0,0.2,0.1,0.5,0.1,0.9
		c0,0.4,0,0.9,0,1.4c0,0.5,0,0.9,0,1.4c0,0.4,0,0.7-0.1,0.9c0.3,0.3,0.4,0.6,0.5,0.8c0.1,0.2,0.1,0.5,0.1,0.8v0.4c0,0,0,0.2-0.1,0.5
		c-0.1,0.3-0.1,0.4-0.1,0.6v0.5v1.6c0,0.1-0.1,0.4-0.1,0.8c-0.1,0.4-0.2,0.8-0.2,1.3c-0.1,0.5-0.2,0.9-0.2,1.3
		c-0.1,0.4-0.1,0.7-0.1,0.7v0.3c0,0.4,0,0.7,0.1,1.1c0.1,0.4,0.1,0.8,0.1,1.2c0,0.5,0,0.9-0.1,1.3c-0.1,0.4-0.1,0.9-0.1,1.3V67
		c0,0,0,0.1,0,0.3c0,0.1,0.1,0.2,0.1,0.4c0,0.1,0.1,0.3,0.1,0.4c0,0.1,0,0.2,0,0.2c0,1.4,0.1,2.8,0.1,4.2c0,1.4,0,2.8,0.1,4.2
		c0,0,0,0.2,0.1,0.3c0,0.2,0.1,0.4,0.1,0.6c0,0.2,0.1,0.4,0.1,0.7c0,0.2,0.1,0.3,0.1,0.4c0,0,0,0.1,0,0.3c0,0.1,0,0.3-0.1,0.5
		c0,0.2-0.1,0.3-0.1,0.5c0,0.1-0.1,0.2-0.1,0.3c0,0,0,0.2,0,0.4c0,0.2,0,0.4-0.1,0.6c0,0.2,0,0.4-0.1,0.7c0,0.2,0,0.3,0,0.4
		c0,0.1-0.1,0.3-0.1,0.4c0,0.2-0.1,0.3-0.1,0.5c0,0.2,0,0.3-0.1,0.4c0,0.1,0,0.2,0,0.2c0,0,0,0.1-0.1,0.3c-0.1,0.2-0.2,0.4-0.3,0.6
		c-0.1,0.2-0.2,0.5-0.3,0.7c-0.1,0.3-0.2,0.5-0.3,0.6c-0.1,0.2-0.3,0.5-0.4,0.8c-0.1,0.3-0.3,0.6-0.5,0.9c-0.2,0.3-0.4,0.5-0.7,0.7
		s-0.5,0.3-0.8,0.3c-0.8,0-1.6-0.1-2.4-0.2c-0.9-0.1-1.6-0.4-2.2-0.8c0,0-0.1,0-0.2-0.1c-0.1-0.1-0.2-0.1-0.2-0.1
		c-0.1,0-0.2,0-0.4-0.1c-0.2-0.1-0.4-0.1-0.4-0.1c-0.4-0.3-0.7-0.6-0.9-0.9c-0.2-0.3-0.3-0.6-0.5-0.9c-0.2-0.3-0.4-0.5-0.7-0.7
		c-0.3-0.2-0.8-0.3-1.5-0.3c-0.7,0-1.3,0.1-1.6,0.2c-0.4,0.1-0.8,0.5-1.1,1.1c-0.1,0.1-0.2,0.3-0.3,0.5c-0.1,0.2-0.2,0.4-0.3,0.7
		c-0.1,0.2-0.2,0.4-0.3,0.6c-0.1,0.2-0.1,0.3-0.1,0.3v1.1c0,1.7,0.4,2.9,1.3,3.6c0.9,0.7,2.1,1.1,3.7,1.1c1.5,0,3-0.1,4.5-0.3
		c1.4-0.2,2.9-0.4,4.5-0.8c0,0,0.2,0,0.3-0.1c0.2,0,0.3-0.1,0.3-0.2c0.3-0.1,0.5-0.2,0.7-0.3c0.2-0.1,0.3-0.2,0.5-0.3
		c0.1-0.1,0.3-0.2,0.5-0.3c0.2-0.1,0.4-0.2,0.7-0.4c0,0,0.2-0.1,0.5-0.3c0.3-0.1,0.5-0.2,0.5-0.3c0,0,0.1-0.1,0.4-0.3
		c0.2-0.2,0.3-0.4,0.4-0.4c0.2-0.2,0.5-0.3,0.7-0.4c0.2-0.1,0.4-0.2,0.6-0.4c0.2-0.1,0.4-0.3,0.5-0.5c0.2-0.2,0.3-0.4,0.4-0.7
		c0.1-0.2,0.3-0.6,0.6-1c0.2-0.4,0.5-0.9,0.7-1.3c0.2-0.4,0.4-0.9,0.6-1.2c0.2-0.4,0.2-0.6,0.3-0.7c0,0,0.1-0.1,0.1-0.3
		c0-0.2,0.1-0.4,0.1-0.6c0.1-0.2,0.1-0.5,0.2-0.7c0.1-0.2,0.1-0.4,0.2-0.6c0-0.1,0-0.3,0.1-0.6c0-0.3,0.1-0.6,0.1-1
		c0-0.4,0.1-0.7,0.1-1c0-0.3,0.1-0.5,0.1-0.6c0,0,0.1-0.2,0.3-0.4c0.2-0.3,0.3-0.4,0.3-0.5v-0.2c0,0,0-0.1,0-0.2c0-0.1,0-0.1,0-0.2
		c0-0.5,0-1-0.1-1.4c-0.1-0.5-0.1-0.9-0.1-1.4v-0.4c0-0.1,0-0.3,0.1-0.5c0-0.3,0.1-0.5,0.1-0.8c0-0.3,0-0.6,0.1-0.8
		c0-0.3,0-0.4,0-0.6c0-1.5,0-2.9,0-4.4c0-1.5,0-2.9,0-4.4c0-1.1,0-2.2,0-3.2c0-1,0-2.1,0-3.2c0,0,0.1-0.2,0.1-0.4
		c0.1-0.2,0.1-0.3,0.2-0.3v-0.2c0-0.2,0-0.4-0.1-0.6c-0.1-0.2-0.1-0.4-0.1-0.7v-0.4c0-0.1,0-0.2,0-0.5c0-0.3,0-0.6,0.1-0.9
		c0-0.3,0.1-0.6,0.1-0.9c0-0.3,0.1-0.4,0.1-0.5c0.1-1.7,0.1-3.3,0.1-4.9c0-1.6,0-3.2,0-4.9V35c0-0.1,0-0.2,0-0.5
		c0-0.2,0-0.5-0.1-0.8c0-0.3,0-0.5-0.1-0.8c0-0.2,0-0.4,0-0.5c0-0.1,0-0.2-0.1-0.3c0-0.1,0-0.2,0-0.3s0-0.2,0-0.2
		c0-0.8,0.2-1.5,0.6-2c0.4-0.5,0.9-1,1.5-1.5c0.4,0,0.8,0,1.2,0.1c0.4,0,0.8,0,1.3,0c0.6,0,1.1,0,1.7-0.1c0.6-0.1,1.1-0.2,1.6-0.3
		c0.1,0,0.2,0,0.3-0.1c0.1,0,0.2-0.1,0.3-0.1c0.1-0.2,0.2-0.3,0.2-0.5c0-0.2,0-0.4,0-0.6C45.6,25.1,44.8,24.1,43.3,23.7z"/>
	<path d="M86.8,40.7c-0.4-0.5-1-0.9-1.6-1.2c-0.6-0.3-1.3-0.4-2-0.4c-0.3,0-0.6,0-0.8,0.1c-0.2,0.1-0.5,0.1-0.8,0.1
		c-0.2,0-0.4,0-0.6-0.1c-0.2-0.1-0.4-0.1-0.6-0.1H80c0,0-0.1,0.1-0.2,0.1c-0.1,0-0.2,0-0.4,0.1c-0.1,0-0.3,0-0.4,0.1
		c-0.1,0-0.2,0-0.2,0h-3.2c-0.3,0-0.6,0-0.9,0c-0.3,0-0.7,0-1.3,0c-0.2,0-0.3,0.1-0.5,0.2c-0.2,0.1-0.3,0.2-0.5,0.4
		c-0.1,0.1-0.2,0.3-0.3,0.4c-0.1,0.1-0.1,0.3-0.1,0.3c0,0.2,0,0.3,0.1,0.4c0.1,0.1,0.2,0.2,0.3,0.2c0.1,0,0.3,0.1,0.4,0.1
		c0.1,0,0.3,0,0.4,0.1c0.2,0.1,0.4,0.2,0.6,0.3c0.2,0.2,0.4,0.3,0.5,0.4c0,0,0.1,0.1,0.2,0.1c0.1,0,0.1,0.1,0.1,0.1c0,0,0.1,0,0.2,0
		c0.1,0,0.3,0,0.4,0.1c0.1,0,0.3,0,0.4,0.1c0.1,0,0.2,0,0.2,0c0.1,0,0.1,0,0.2,0.1c0.1,0.1,0.2,0.1,0.4,0.2c0.1,0.1,0.3,0.1,0.4,0.2
		c0.1,0.1,0.2,0.1,0.3,0.2c0.2,0.2,0.4,0.4,0.5,0.7c0.1,0.3,0.2,0.6,0.3,0.7c0,0.1,0,0.2-0.1,0.5c0,0.2,0,0.5,0,0.7
		c0,0.2,0,0.5,0,0.7c0,0.2,0,0.4,0.1,0.5c0,0,0,0.1,0.1,0.2c0,0.1,0.1,0.2,0.1,0.4c0,0.1,0.1,0.3,0.1,0.4c0,0.1,0.1,0.2,0.1,0.2
		c0,0.1,0,0.1,0,0.3c0,0.1,0,0.2,0,0.3c0,0.8,0,1.6-0.1,2.4c0,0.8-0.1,1.6-0.2,2.3c-0.1,0.1-0.1,0.2-0.1,0.3c0,0.1,0,0.3,0,0.4v0.6
		c0,0.5,0,1.1,0.1,1.7c0.1,0.6,0.1,1.1,0.1,1.7c0,0.1,0,0.2,0,0.4c0,0.2,0,0.3,0,0.5c0,0.2,0,0.3,0,0.4c0,0.1,0,0.2,0,0.2
		c0,0.1,0,0.3,0,0.5c0,0.2,0,0.4,0,0.6c0,0.2,0,0.4-0.1,0.6c0,0.2,0,0.3-0.1,0.3c0,0,0,0.1-0.1,0.2c-0.1,0.1-0.1,0.2-0.2,0.3
		c-0.1,0.1-0.1,0.2-0.2,0.3c-0.1,0.1-0.1,0.2-0.1,0.2c0,0,0,0.1,0,0.2c0,0.1,0,0.2,0,0.4c0,0.1,0,0.3-0.1,0.4c0,0.1,0,0.2-0.1,0.2
		c0,0.3-0.1,0.6-0.2,0.9c-0.1,0.3-0.2,0.6-0.3,0.9c0,0.1-0.1,0.2-0.1,0.3c0,0.1-0.1,0.2-0.1,0.2c-0.2,0.3-0.4,0.5-0.7,0.7
		s-0.6,0.4-0.9,0.6c-0.4,0.3-0.7,0.6-1.1,0.9c-0.3,0.3-0.7,0.6-1.1,0.8c-0.4,0.2-0.7,0.5-1.1,0.7c-0.4,0.2-0.8,0.3-1.3,0.4
		c-0.1,0-0.1,0-0.2,0.1c-0.1,0-0.2,0-0.3,0.1c-0.1,0-0.2,0.1-0.4,0.1c0,0-0.1,0-0.2,0c-0.1,0-0.3-0.1-0.4-0.1
		c-0.2,0-0.3-0.1-0.5-0.1c-0.2,0-0.3-0.1-0.4-0.1c0,0-0.1,0-0.3-0.1C67.7,70,67.6,70,67.6,70c-0.1,0-0.3,0-0.5-0.1
		c-0.3,0-0.6-0.1-0.9-0.1c-0.3,0-0.6-0.1-0.9-0.1c-0.3,0-0.5-0.1-0.5-0.1c-0.1,0-0.2,0-0.3-0.1c-0.1-0.1-0.2-0.1-0.3-0.1l-0.2-0.2
		c-0.2-0.1-0.4-0.2-0.5-0.3c-0.2-0.1-0.3-0.1-0.4-0.2c-0.1-0.1-0.2-0.2-0.4-0.3c-0.1-0.1-0.2-0.3-0.3-0.5c0,0,0-0.1-0.1-0.1
		c0-0.1,0-0.1-0.1-0.2c0-0.1,0-0.1-0.1-0.2c0-0.1,0-0.1,0-0.1c-0.1-0.3-0.2-0.6-0.4-0.8c-0.2-0.2-0.3-0.5-0.4-0.8c0,0,0-0.1-0.1-0.2
		c0-0.1-0.1-0.2-0.1-0.3c0-0.1-0.1-0.2-0.1-0.3c0-0.1-0.1-0.1-0.1-0.1c0,0-0.1-0.1-0.2-0.3c-0.1-0.1-0.2-0.2-0.2-0.3
		c-0.5-1.2-0.8-2.4-0.9-3.7c-0.2-1.3-0.3-2.6-0.4-3.8v-0.7c0-0.3,0-0.5,0-0.8c0-0.2,0.1-0.5,0.2-0.7V47c-0.1-0.3-0.1-0.6-0.2-0.9
		c0-0.2-0.1-0.5-0.1-0.8c0-0.2,0-0.4,0.1-0.7c0.1-0.3,0.2-0.5,0.3-0.8c0.1-0.2,0.3-0.5,0.5-0.7c0.2-0.2,0.4-0.3,0.6-0.4
		c0,0,0.1,0,0.2-0.1c0.1,0,0.2-0.1,0.3-0.1c0.1,0,0.2,0,0.3-0.1c0.1,0,0.2,0,0.2,0c0.1,0,0.2-0.1,0.4-0.1c0.2,0,0.3-0.1,0.3-0.1
		c0,0,0.2-0.1,0.4-0.2c0.2-0.1,0.4-0.2,0.5-0.2c0.3-0.2,0.4-0.3,0.5-0.4c0.1-0.1,0.2-0.3,0.2-0.6v-0.2c0-0.1,0-0.2,0-0.3
		c0-0.1-0.1-0.2-0.2-0.3c-0.3-0.2-0.6-0.3-0.9-0.4c-0.4-0.1-0.7-0.2-1-0.3c-0.1,0-0.3,0-0.6,0c-0.3,0-0.6,0-0.9,0
		c-0.3,0-0.6,0-0.9,0s-0.5,0-0.6,0c-0.3,0-0.5,0-0.8,0.1c-0.3,0.1-0.5,0.1-0.8,0.1h-2c-0.7,0-1.3,0-2,0.1c-0.6,0-1.3,0.2-1.9,0.3
		c0,0-0.1,0.1-0.3,0.1c-0.1,0.1-0.2,0.1-0.2,0.2c0,0,0,0.2-0.1,0.4c-0.1,0.2-0.1,0.4-0.1,0.5v0.2c0,0.2,0.1,0.4,0.4,0.6
		c0.2,0.1,0.5,0.3,0.8,0.4c0.3,0.1,0.7,0.3,1,0.4c0.3,0.1,0.6,0.3,0.8,0.6c0.1,0.6,0.1,1.1,0.1,1.5c0,0.4,0,0.9,0,1.5
		c0,0.5,0,0.9-0.1,1.3c0,0.4-0.1,0.7-0.1,1.1c0,0.3,0,0.6,0.1,0.9c0,0.3,0.1,0.6,0.1,0.8c0,0.4,0,0.8-0.1,1.1
		c-0.1,0.3-0.1,0.7-0.1,1.1c0,0.1,0,0.2,0,0.3c0,0.1,0,0.3,0,0.4c0,0.1,0,0.3,0,0.5c0,0.1,0,0.2,0.1,0.4c0,0.2,0.1,0.3,0.1,0.4v0.1
		c0,0.3,0,0.5-0.1,0.8c0,0.2-0.1,0.5-0.1,0.8c0,0.2,0,0.5,0.1,0.6c0,0.2,0.1,0.4,0.1,0.6V58c0,0.1,0,0.3,0,0.5c0,0.3,0,0.6,0,0.9
		c0,0.3,0,0.7,0,1c0,0.3,0,0.6,0,0.9v0.4c0,0,0,0.1,0.1,0.3c0,0.2,0.1,0.4,0.1,0.6c0,0.2,0.1,0.4,0.1,0.6c0,0.2,0.1,0.3,0.1,0.3
		c0,0.3,0.1,0.5,0.1,0.8c0,0.3,0,0.6,0.1,0.9c0,0.3,0.1,0.6,0.1,0.9s0.2,0.6,0.3,0.8c0,0,0,0.1,0.1,0.2c0.1,0.1,0.1,0.3,0.2,0.4
		c0.1,0.1,0.2,0.3,0.2,0.4c0.1,0.1,0.1,0.2,0.2,0.2c0.1,0.2,0.2,0.4,0.3,0.7c0.1,0.2,0.2,0.5,0.2,0.7c0.1,0.2,0.2,0.4,0.3,0.7
		c0.1,0.2,0.2,0.4,0.4,0.5c0,0,0.1,0,0.1,0.1c0.1,0,0.2,0.1,0.2,0.2c0.1,0.1,0.2,0.1,0.2,0.2c0.1,0,0.1,0.1,0.1,0.1
		c0.5,0.4,0.9,0.8,1.3,1c0.4,0.3,0.8,0.5,1.2,0.8c0.4,0.2,0.8,0.4,1.3,0.7c0.4,0.2,0.9,0.4,1.5,0.7c0,0.1,0.1,0.1,0.3,0.2
		c0.1,0.1,0.2,0.2,0.3,0.2h1.1h0.4c0,0,0.1,0,0.1,0c0.1,0,0.2,0,0.2,0.1c0.1,0,0.2,0,0.2,0.1c0.1,0,0.1,0,0.1,0h1.9
		c0.1,0,0.1,0,0.3,0c0.1,0,0.3,0,0.4,0.1c0.2,0,0.3,0,0.4,0.1c0.1,0,0.2,0,0.3,0h0.7c0.2,0,0.3,0,0.4,0c0.1,0,0.2-0.1,0.3-0.1
		c0.1-0.1,0.2-0.1,0.3-0.2c0.1-0.1,0.2-0.2,0.4-0.2c0.2-0.1,0.5-0.1,0.7-0.2c0.3,0,0.5-0.1,0.7-0.1c0.1,0,0.2,0,0.3-0.1
		c0.2,0,0.3-0.1,0.5-0.1c0.2,0,0.3-0.1,0.4-0.1c0.1,0,0.2-0.1,0.2-0.1c0.2-0.1,0.4-0.2,0.6-0.4c0.2-0.2,0.4-0.3,0.6-0.3
		c0,0,0.1,0,0.2-0.1c0.1,0,0.2,0,0.3-0.1c0.1,0,0.2,0,0.3-0.1c0.1,0,0.2,0,0.2-0.1c0,0,0.1-0.1,0.2-0.2c0.1-0.1,0.2-0.2,0.3-0.3
		c0.1-0.1,0.2-0.2,0.3-0.3c0.1-0.1,0.1-0.1,0.2-0.2c0,0,0.1,0,0.1-0.1c0.1-0.1,0.1-0.1,0.2-0.2c0.1-0.1,0.1-0.1,0.2-0.2
		c0.1-0.1,0.1-0.1,0.2-0.1c0,0,0.1-0.1,0.2-0.2c0.1-0.1,0.1-0.2,0.2-0.2c0.1-0.1,0.1-0.1,0.2-0.2c0.1-0.1,0.1-0.1,0.1-0.1
		c0.4-0.5,0.8-1,1.1-1.6c0.3-0.6,0.6-1.2,0.9-1.7c0-0.1,0.1-0.1,0.1-0.2c0-0.1,0.1-0.2,0.1-0.2c0.1-0.2,0.1-0.3,0.1-0.5
		c0-0.2,0.1-0.4,0.1-0.6c0.1-0.2,0.1-0.4,0.2-0.5c0.1-0.2,0.2-0.3,0.3-0.5l0.4-4.8c0-0.1,0.1-0.3,0.2-0.6c0.1-0.3,0.1-0.5,0.2-0.7
		c0-0.1,0-0.3,0-0.5c0-0.2,0-0.5,0-0.8c0-0.3,0-0.6,0-1c0-0.4,0-0.7,0-1.1c0-0.7,0-1.4,0-2.1c0-0.7,0-1.1,0.1-1.4c0-0.1,0-0.2,0-0.3
		c0-0.2,0-0.3,0.1-0.5c0-0.2,0-0.3,0.1-0.5c0-0.2,0-0.3,0-0.3v-0.3V50c0-0.1,0-0.2-0.1-0.3C82,49.6,82,49.5,82,49.4
		c0-0.1,0-0.2,0-0.3c0-0.2,0-0.3,0.1-0.5c0-0.2,0-0.3,0.1-0.5c0-0.2,0-0.3,0-0.3v-1.8c0-0.1,0-0.3,0.1-0.5c0-0.2,0.1-0.5,0.1-0.8
		c0-0.3,0.1-0.5,0.1-0.7c0-0.2,0.1-0.4,0.1-0.5c0.2-0.2,0.4-0.4,0.5-0.5c0.2-0.1,0.4-0.2,0.6-0.2c0.2,0,0.4-0.1,0.7-0.1
		c0.2,0,0.4,0,0.7-0.1c0.1,0,0.2-0.1,0.4-0.2c0.2-0.1,0.4-0.2,0.5-0.3c0.2-0.1,0.4-0.2,0.5-0.3c0.2-0.1,0.3-0.1,0.4-0.2
		c0-0.1,0-0.1,0.1-0.2c0-0.1,0.1-0.2,0.1-0.2v-0.1v-0.1c0,0-0.1-0.1-0.1-0.3C86.8,40.9,86.8,40.8,86.8,40.7z"/>
	<path d="M120.3,72.5c-0.1-0.1-0.2-0.1-0.4-0.2c-0.1-0.1-0.2-0.1-0.3-0.2c-0.1,0-0.2,0-0.4,0c-0.2,0-0.5-0.1-0.7-0.1
		c-0.3,0-0.5-0.1-0.7-0.1c-0.2,0-0.4-0.1-0.4-0.1c0,0-0.1-0.1-0.3-0.2c-0.2-0.1-0.3-0.2-0.4-0.2c0,0,0-0.1-0.1-0.1
		c-0.1,0-0.1-0.1-0.1-0.1c-0.4-0.3-0.7-0.6-0.9-0.9c-0.2-0.3-0.3-0.6-0.4-1c-0.1-0.3-0.2-0.7-0.3-1.1c-0.1-0.4-0.3-0.7-0.5-1.1
		c0,0-0.1-0.1-0.1-0.2c-0.1-0.1-0.2-0.2-0.2-0.3c-0.1-0.1-0.2-0.2-0.2-0.3c-0.1-0.1-0.1-0.2-0.1-0.2V66v-0.2c0-0.1,0-0.1,0.1-0.2
		c0-0.1,0-0.2,0.1-0.4c0-0.1,0-0.3,0.1-0.4c0-0.1,0-0.2,0.1-0.3c-0.3-0.7-0.6-1.4-0.8-2.1c-0.2-0.7-0.5-1.4-0.8-2.2
		c0,0-0.1-0.1-0.1-0.2c-0.1-0.1-0.1-0.2-0.1-0.2c-0.2-1.1-0.4-2.2-0.7-3.2c-0.3-1-0.7-2.1-1.2-3c0-0.2-0.1-0.4-0.2-0.8
		c-0.1-0.4-0.2-0.8-0.3-1.2c-0.1-0.4-0.2-0.8-0.3-1.2c-0.1-0.4-0.2-0.7-0.2-0.8c0,0-0.1-0.1-0.1-0.2c0-0.1-0.1-0.2-0.1-0.3
		c0-0.1-0.1-0.2-0.1-0.3c0-0.1-0.1-0.2-0.1-0.2c0-0.1,0-0.2,0-0.4c0-0.2-0.1-0.4-0.1-0.7c0-0.2-0.1-0.5-0.1-0.7
		c0-0.2-0.1-0.3-0.1-0.4c-0.1-0.3-0.2-0.7-0.3-1c-0.2-0.4-0.3-0.7-0.4-1.1v-0.9c0,0,0-0.1-0.1-0.2c0-0.1-0.1-0.2-0.1-0.3
		c0,0-0.1-0.1-0.1-0.1c0-0.1-0.1-0.2-0.1-0.2c-0.2-0.6-0.3-1.3-0.4-2c-0.1-0.7-0.2-1.4-0.4-2.1c0-0.2-0.1-0.4-0.3-0.6
		c-0.2-0.2-0.4-0.3-0.5-0.5c-0.1,0-0.2,0-0.5,0c-0.2,0-0.4,0-0.5,0c-0.3,0-0.6,0-0.9,0.1c-0.2,0.1-0.5,0.2-0.7,0.3
		c-0.2,0.1-0.4,0.3-0.6,0.4c-0.2,0.2-0.5,0.3-0.7,0.5c0,0-0.1,0.1-0.1,0.1c-0.1,0-0.1,0.1-0.2,0.1c-0.1,0.1-0.1,0.1-0.2,0.1
		c-0.1,0.1-0.1,0.2-0.2,0.4c-0.1,0.2-0.1,0.3-0.2,0.4v1V41c0,0.1,0,0.1-0.1,0.3c-0.1,0.1-0.1,0.3-0.2,0.4c-0.1,0.2-0.2,0.3-0.3,0.4
		c-0.1,0.1-0.1,0.2-0.2,0.3c0,0.1,0,0.2,0,0.3c0,0.2,0,0.3,0,0.5c0,0.1,0,0.2-0.1,0.3c0,0.5-0.1,1-0.4,1.4c-0.2,0.4-0.4,0.8-0.6,1.3
		c-0.2,0.5-0.3,1.1-0.4,1.7c-0.1,0.6-0.3,1.1-0.4,1.6c0,0.1-0.1,0.1-0.1,0.3c0,0.1-0.1,0.3-0.2,0.4c-0.1,0.2-0.1,0.3-0.2,0.4
		c-0.1,0.1-0.1,0.2-0.1,0.3c0,0,0,0.1,0,0.2c0,0.1-0.1,0.2-0.1,0.3c0,0.1-0.1,0.2-0.1,0.3c0,0.1-0.1,0.2-0.1,0.2
		c0,0-0.1,0.1-0.1,0.3c-0.1,0.1-0.2,0.3-0.2,0.4c-0.1,0.2-0.2,0.3-0.2,0.4c-0.1,0.1-0.1,0.2-0.1,0.3v0.7c0,0.1,0,0.2-0.1,0.4
		c0,0.2-0.1,0.3-0.1,0.5c0,0.2-0.1,0.3-0.1,0.5c0,0.1,0,0.2-0.1,0.3c0,0-0.1,0.1-0.2,0.2c-0.1,0.1-0.2,0.2-0.2,0.2
		c0,0,0,0.1-0.1,0.3c0,0.1-0.1,0.2-0.1,0.3c-0.1,0.4-0.1,0.8-0.2,1.2c-0.1,0.4-0.2,0.8-0.5,1.1l-0.3,3c-0.1,0.1-0.2,0.2-0.2,0.4
		c-0.1,0.2-0.1,0.3-0.2,0.4c0,0,0,0.1,0,0.3c0,0.1,0,0.3-0.1,0.5c0,0.2,0,0.3-0.1,0.4c0,0.1,0,0.2-0.1,0.2c0,0,0,0.1-0.1,0.2
		c-0.1,0.1-0.1,0.1-0.2,0.2c-0.1,0.1-0.2,0.1-0.2,0.2c-0.1,0.1-0.1,0.1-0.1,0.1c-0.1,0.1-0.2,0.4-0.3,0.7c-0.1,0.3-0.2,0.6-0.3,0.9
		c-0.1,0.3-0.2,0.6-0.3,0.8c-0.1,0.2-0.3,0.4-0.4,0.4v2.5l-0.3,0.4c0,0-0.1,0.1-0.3,0.2c-0.2,0.1-0.4,0.2-0.7,0.3
		c-0.3,0.1-0.5,0.3-0.8,0.4c-0.3,0.1-0.5,0.2-0.7,0.3c0,0-0.1,0-0.2,0.1c-0.1,0-0.2,0-0.4,0.1c-0.1,0-0.2,0-0.3,0
		c-0.1,0-0.2,0-0.2,0c-0.2,0.1-0.4,0.2-0.7,0.3s-0.4,0.3-0.4,0.5c0,0.3,0,0.6,0.1,1c0.1,0.3,0.1,0.6,0.2,0.9
		c0.1,0.1,0.1,0.1,0.1,0.2c0,0.1,0.1,0.2,0.1,0.2h3.5h3.5c0.2,0,0.5,0,1,0c0.5,0,1,0,1.5-0.1c0.5,0,1,0,1.5-0.1c0.5,0,0.8,0,1,0
		c0.1,0,0.1-0.1,0.2-0.1c0.1-0.1,0.1-0.1,0.2-0.2c0.1-0.1,0.1-0.2,0.2-0.2c0.1-0.1,0.1-0.1,0.1-0.2v-0.4c0-0.4-0.1-0.7-0.4-1
		c-0.2-0.3-0.5-0.5-0.9-0.6c-0.3-0.2-0.7-0.3-1.1-0.4c-0.4-0.1-0.7-0.2-1-0.2c-0.1,0-0.1,0-0.3-0.1c-0.1,0-0.3-0.1-0.4-0.1
		c-0.2,0-0.3-0.1-0.4-0.1c-0.1,0-0.2-0.1-0.3-0.1c0,0-0.1-0.1-0.1-0.2c-0.1-0.1-0.1-0.2-0.2-0.2l-0.2-0.4c0,0,0.1-0.1,0.2-0.3
		c0.1-0.2,0.2-0.3,0.2-0.4c0.1-0.3,0.1-0.6,0.1-1c0-0.3,0-0.6,0.1-1c0-0.3,0.1-0.6,0.2-0.9c0.1-0.3,0.3-0.6,0.5-0.9l0.7-3.9l0.2-0.2
		c0.1,0,0.2,0,0.4,0c0.2,0,0.4,0,0.7-0.1c0.2,0,0.4,0,0.6-0.1c0.2,0,0.3,0,0.4-0.1c0.1,0,0.1,0,0.2-0.1c0.1-0.1,0.2-0.1,0.2-0.1
		c0.5-0.1,1.1-0.1,1.8-0.2c0.7,0,1.3,0,1.9,0h1.4c0.1,0,0.2,0,0.3-0.1c0.1,0,0.2-0.1,0.3-0.1c0.1,0,0.1,0,0.2-0.1l0.2-0.1
		c0.1,0,0.1,0,0.2,0c0.1,0,0.2,0,0.4,0c0.1,0,0.3,0,0.4,0.1c0.1,0,0.2,0,0.3,0.1c0.2,0,0.3,0.1,0.4,0.2c0.1,0.1,0.2,0.2,0.3,0.4
		c0.1,0.2,0.1,0.3,0.2,0.5c0.1,0.2,0.1,0.3,0.2,0.5c0,0,0,0.1,0.1,0.2c0,0.1,0.1,0.2,0.1,0.3c0,0.1,0.1,0.2,0.1,0.3
		c0,0.1,0.1,0.1,0.1,0.2c0,0.1,0,0.2,0.1,0.3c0,0.2,0.1,0.4,0.1,0.6c0.1,0.2,0.1,0.4,0.1,0.6c0,0.2,0.1,0.3,0.1,0.3
		c0.1,0.4,0.2,0.8,0.4,1.3c0.1,0.4,0.3,0.9,0.4,1.3c0.1,0.5,0.2,0.9,0.3,1.4c0.1,0.5,0.1,0.9,0.1,1.4v0.9c0,0,0,0.1-0.1,0.1
		c0,0.1-0.1,0.1-0.1,0.1c0,0-0.1,0-0.2,0c-0.1,0-0.2,0-0.3,0c-0.1,0-0.2,0-0.3,0.1c-0.1,0-0.1,0-0.2,0.1c0,0-0.1,0.1-0.2,0.1
		c-0.1,0.1-0.2,0.1-0.3,0.2c-0.1,0.1-0.2,0.2-0.3,0.2c-0.1,0.1-0.2,0.1-0.2,0.1c0,0-0.1,0-0.2,0.1c-0.1,0-0.2,0-0.3,0.1
		c-0.1,0-0.2,0-0.3,0.1c-0.1,0-0.2,0-0.2,0c-0.1,0-0.2,0.1-0.2,0.3c-0.1,0.1-0.1,0.2-0.1,0.3c-0.1,0.2-0.1,0.3-0.2,0.4
		c0,0.1-0.1,0.2-0.1,0.3c0,0.2,0.1,0.4,0.2,0.5c0.1,0.1,0.2,0.3,0.4,0.4c0.2,0,0.7,0,1.3,0c0.6,0,1.3,0,2.1,0c0.7,0,1.4,0,2,0
		c0.6,0,1.1,0,1.4,0c0.1,0,0.2,0,0.4,0c0.2,0,0.4,0,0.6,0.1c0.2,0,0.4,0,0.6,0.1c0.2,0,0.3,0,0.3,0h2.9c0.1,0.1,0.3,0.1,0.4,0.2
		c0.1,0,0.2,0,0.4,0h0.3h0.6c0.1,0,0.2-0.1,0.3-0.3c0.1-0.2,0.2-0.4,0.3-0.7c0.1-0.3,0.2-0.5,0.2-0.7c0.1-0.2,0.1-0.4,0.1-0.4
		c0-0.1,0-0.2-0.1-0.3C120.5,72.6,120.4,72.6,120.3,72.5z M106.4,57.9c0,0.2-0.1,0.4-0.2,0.5c0,0-0.1,0-0.2,0.1
		c-0.1,0.1-0.2,0.1-0.3,0.2c-0.1,0.1-0.2,0.1-0.3,0.2c-0.1,0.1-0.2,0.1-0.3,0.1h-0.2c-0.3,0-0.6,0-0.9-0.1c-0.3-0.1-0.6-0.1-0.9-0.1
		c-0.3,0-0.6,0.1-0.9,0.2c-0.3,0.1-0.6,0.2-0.9,0.2c-0.3,0-0.5-0.1-0.7-0.2c-0.2-0.1-0.4-0.2-0.6-0.4c-0.2-0.2-0.3-0.3-0.5-0.6
		c-0.1-0.2-0.3-0.4-0.4-0.7c0,0,0-0.1-0.1-0.3c0-0.1-0.1-0.2-0.1-0.3v-0.1v-0.1c0-0.1,0-0.2,0-0.3c0-0.1,0-0.2,0.1-0.4
		c0-0.1,0-0.3,0.1-0.4c0,0,0.1-0.1,0.1-0.2c0.1-0.1,0.1-0.2,0.2-0.4c0.1-0.1,0.1-0.2,0.2-0.3c0.1-0.1,0.1-0.2,0.1-0.2
		c0,0,0-0.1,0.1-0.2c0-0.1,0-0.3,0.1-0.4c0-0.1,0-0.3,0.1-0.4c0-0.1,0-0.2,0-0.2c0.1-0.3,0.2-0.7,0.4-1c0.2-0.4,0.4-0.7,0.5-1.1
		c0,0,0-0.1,0-0.3c0-0.2,0-0.3,0.1-0.5c0-0.2,0-0.4,0-0.5c0-0.2,0-0.3,0-0.3c0,0,0.1-0.1,0.1-0.2c0.1-0.1,0.1-0.2,0.2-0.3
		c0.1-0.1,0.1-0.2,0.2-0.3c0.1-0.1,0.1-0.2,0.1-0.2v-0.5c0-0.1,0.1-0.3,0.1-0.5c0.1-0.2,0.1-0.4,0.2-0.5c0.1-0.2,0.2-0.3,0.3-0.4
		c0.1-0.1,0.3-0.2,0.4-0.2c0.1,0,0.2,0,0.2,0.1c0,0,0.1,0.1,0.1,0.3c0,0.1,0.1,0.1,0.1,0.3c0.1,0.1,0.1,0.3,0.2,0.4
		c0.1,0.2,0.1,0.3,0.2,0.4c0.1,0.1,0.1,0.2,0.1,0.3c0,0.1,0.1,0.3,0.2,0.5c0.1,0.2,0.1,0.4,0.2,0.7c0.1,0.2,0.1,0.4,0.2,0.6
		c0.1,0.2,0.1,0.3,0.1,0.3c0.2,0.8,0.5,1.5,0.7,2.3c0.2,0.8,0.5,1.5,0.7,2.3c0.1,0.4,0.3,0.8,0.4,1.2c0.2,0.4,0.3,0.9,0.3,1.3
		C106.4,57.5,106.4,57.6,106.4,57.9z"/>
	<path d="M161.1,38.7c-0.1,0-0.2-0.1-0.4-0.1c-0.2,0-0.3,0-0.5-0.1c0,0-0.1-0.1-0.3-0.1c-0.2,0-0.2,0-0.2-0.1
		c-0.8,0-1.6,0.1-2.4,0.2c-0.8,0.1-1.6,0.2-2.4,0.2l-5.6-0.4h-0.5c-0.1,0-0.2,0-0.3,0c-0.1,0-0.2,0-0.2,0c-0.1,0-0.1,0-0.3,0.1
		c-0.1,0-0.2,0.1-0.4,0.2c-0.1,0.1-0.2,0.2-0.3,0.3c-0.1,0.1-0.2,0.3-0.2,0.5c0,0.5,0.1,0.8,0.3,1c0.2,0.2,0.5,0.5,0.8,0.7
		c0,0,0.1,0,0.1,0.1c0.1,0,0.1,0.1,0.2,0.1c0.1,0.1,0.2,0.1,0.2,0.1c0.1,0,0.1,0.1,0.1,0.1c0,0,0.1,0,0.2,0.1c0.1,0,0.2,0.1,0.3,0.1
		c0.1,0,0.2,0.1,0.3,0.1s0.2,0,0.2,0c0.5,0.1,1,0.4,1.3,0.9c0.4,0.5,0.7,1,0.9,1.5c0.1,0,0.1,0.1,0.1,0.2c0,0.1,0.1,0.1,0.1,0.2v4.4
		c0,0,0.1,0.1,0.1,0.3c0,0.1,0.1,0.2,0.1,0.3c0,0.1,0,0.2,0.1,0.3c0,0.2,0,0.4,0.1,0.6c0,0.2,0,0.4,0.1,0.6c0,0.2,0,0.3,0,0.4
		c0,0.1,0,0.4,0.1,0.7c0,0.4,0,0.7,0.1,1.2c0,0.4,0,0.8,0.1,1.2c0,0.4,0,0.6,0.1,0.8c0,0,0,0.2,0,0.4c0,0.2,0,0.5,0,0.7
		c0,0.2,0,0.3,0.1,0.4c0,0.1,0,0.2,0.1,0.4c0,0.2,0.1,0.3,0.1,0.3v0.8c0,0.7-0.1,1.4-0.2,2.1c-0.1,0.7-0.3,1.4-0.5,2
		c0,0.2-0.1,0.3-0.3,0.4c-0.1,0-0.3,0.1-0.4,0.1c-0.3,0-0.5,0-0.6-0.1c-0.1-0.1-0.3-0.2-0.4-0.3c-0.1-0.1-0.2-0.3-0.3-0.4
		c-0.1-0.2-0.2-0.3-0.4-0.5c-0.1-0.1-0.2-0.2-0.4-0.4c-0.2-0.2-0.4-0.4-0.6-0.7c-0.2-0.2-0.4-0.4-0.6-0.6c-0.2-0.2-0.3-0.3-0.4-0.4
		c0-0.3-0.1-0.5-0.2-0.6c-0.1-0.2-0.3-0.3-0.5-0.4c-0.2-0.1-0.4-0.2-0.6-0.3c-0.2-0.1-0.4-0.2-0.6-0.4c-0.2-0.2-0.3-0.4-0.5-0.7
		c-0.2-0.3-0.3-0.5-0.4-0.8c-0.8-0.7-1.5-1.4-2.1-2.1c-0.7-0.8-1.2-1.6-1.7-2.5c-0.4-0.2-0.8-0.5-1.2-0.9c-0.4-0.4-0.8-0.9-1.2-1.5
		c-0.4-0.5-0.8-1.1-1.2-1.6c-0.4-0.5-0.7-1-1-1.3c-0.3-0.4-0.7-0.7-1.1-1c-0.4-0.3-0.7-0.6-1-1c-0.2-0.3-0.4-0.6-0.5-0.9
		c-0.1-0.3-0.3-0.6-0.5-0.9c0,0-0.1-0.1-0.2-0.2c-0.1-0.1-0.2-0.3-0.4-0.4c-0.1-0.1-0.3-0.3-0.4-0.4c-0.1-0.1-0.2-0.2-0.2-0.2
		c-0.2-0.3-0.5-0.5-0.7-0.9c-0.2-0.3-0.5-0.6-0.7-0.9s-0.5-0.5-0.9-0.7c-0.3-0.2-0.7-0.3-1.1-0.3c-0.2,0-0.3,0-0.5,0
		c-0.1,0-0.3,0-0.5,0.1h-3.9c-0.1,0-0.3,0-0.5,0.1c-0.2,0.1-0.3,0.1-0.4,0.1c-0.1,0-0.1,0.1-0.2,0.2c-0.1,0.1-0.2,0.2-0.3,0.3
		c-0.1,0.1-0.2,0.2-0.3,0.3c-0.1,0.1-0.1,0.2-0.1,0.2c0,0,0,0.1,0,0.1c0,0.1,0,0.1,0,0.2c0,0.1,0.1,0.3,0.2,0.5
		c0.2,0.2,0.3,0.5,0.5,0.7c0.2,0.2,0.4,0.5,0.7,0.7c0.2,0.2,0.4,0.3,0.6,0.4c0,0,0.1,0,0.2,0c0.1,0,0.2,0,0.3,0.1
		c0.1,0,0.2,0,0.3,0.1c0.1,0,0.1,0,0.2,0c0,0,0.1,0.1,0.1,0.1c0.1,0.1,0.2,0.1,0.2,0.2s0.1,0.1,0.2,0.2c0.1,0.1,0.1,0.1,0.1,0.1
		c0.1,0,0.1,0.1,0.3,0.1c0.1,0,0.3,0.1,0.4,0.1c0.2,0,0.3,0.1,0.4,0.1c0.1,0,0.2,0,0.3,0.1c0.4,0.1,0.7,0.3,1,0.6
		c0.3,0.3,0.5,0.5,0.7,0.9c0.2,0.3,0.4,0.7,0.5,1c0.1,0.4,0.2,0.7,0.2,1.1c0,0.1,0,0.2-0.1,0.4c-0.1,0.2-0.1,0.3-0.1,0.3
		c0,0.2,0,0.5-0.1,0.9c0,0.4-0.1,0.8-0.1,1.3c0,0.5-0.1,0.9-0.1,1.3c0,0.4-0.1,0.7-0.1,0.8v1.8c0,0.1,0,0.2-0.1,0.3
		c-0.1,0.2-0.1,0.2-0.1,0.3c0,0.1,0,0.2-0.1,0.5c0,0.3,0,0.6-0.1,0.9c0,0.3,0,0.7,0,1c0,0.3,0,0.5,0,0.6c0,0,0,0.1,0,0.1
		c0,0.1,0,0.2-0.1,0.3c0,0.1,0,0.2-0.1,0.3c0,0.1,0,0.2-0.1,0.2v0.4c0,0.2,0,0.3,0,0.4c0,0.1,0,0.2,0.1,0.4c0,0.1,0.1,0.2,0.1,0.4
		c0,0.1,0,0.3,0,0.5v0.9c0,0,0,0.1,0,0.2s-0.1,0.2-0.1,0.3c0,0.1,0,0.2-0.1,0.3c0,0.1,0,0.2,0,0.2v1.3v0.5c0,0,0,0.1-0.1,0.2
		c0,0.1-0.1,0.2-0.1,0.2v5.2c-0.1,0.2-0.2,0.3-0.2,0.4c-0.1,0.1-0.1,0.2-0.2,0.3c-0.1,0.1-0.1,0.2-0.1,0.2c-0.2,0.3-0.5,0.5-0.9,0.6
		c-0.4,0.1-0.8,0.2-1.2,0.2c-0.4,0.1-0.8,0.1-1.2,0.3c-0.4,0.1-0.7,0.4-1,0.7c-0.1,0.2-0.2,0.4-0.3,0.5c0,0.1-0.1,0.3-0.1,0.4
		c0,0.2,0,0.4,0.1,0.4c0.1,0.1,0.1,0.2,0.3,0.2c0.1,0,0.3,0.1,0.4,0.1c0.1,0,0.3,0.1,0.5,0.1c0.1,0,0.2,0,0.5,0.1c0.2,0,0.5,0,0.8,0
		c0.3,0,0.5,0,0.8,0c0.2,0,0.4,0,0.5,0.1h0.4c0.6,0,1.2,0,1.8-0.1c0.6-0.1,1.3-0.1,1.9-0.1c0.6,0,1.2,0,1.7,0.1
		c0.6,0.1,1.1,0.1,1.7,0.1h0.6c0.2,0,0.3,0,0.4,0s0.2,0,0.4,0c0.1,0,0.3-0.1,0.4-0.1c0.1-0.1,0.3-0.1,0.5-0.2c0,0,0.1-0.1,0.2-0.1
		c0.1,0,0.2,0,0.3,0c0.1,0,0.2,0,0.3,0c0.1,0,0.2,0,0.2-0.1v-0.5c0-0.2,0-0.3,0-0.4c0-0.1-0.1-0.2-0.2-0.3c-0.3-0.3-0.5-0.6-0.7-0.8
		c-0.2-0.2-0.4-0.4-0.7-0.5c-0.5-0.2-1-0.3-1.6-0.4c-0.5-0.1-1-0.2-1.5-0.3c-0.5-0.2-0.8-0.4-1.1-0.8c-0.3-0.3-0.4-0.9-0.4-1.7
		c0-0.2,0-0.4,0.1-0.6c0.1-0.2,0.1-0.4,0.1-0.6c0-0.3,0-0.6-0.1-0.9c-0.1-0.3-0.1-0.5-0.1-0.8c0-0.4,0-0.8,0.1-1.2
		c0.1-0.4,0.1-0.8,0.1-1.2c0-0.2,0-0.4,0-0.7c0-0.3,0-0.4,0-0.5c0,0,0-0.1,0-0.2c0-0.1,0-0.2-0.1-0.3c0-0.1-0.1-0.2-0.1-0.4
		c0-0.1,0-0.2,0-0.5c0-0.2,0-0.5,0-0.8c0-0.3,0-0.6,0-0.9c0-0.3,0-0.7,0-1c0-0.3,0-0.5,0-0.8c0-0.2,0-0.4-0.1-0.4c0,0,0-0.1-0.1-0.3
		c0-0.2-0.1-0.3-0.1-0.5c0-0.2-0.1-0.3-0.1-0.5c0-0.2-0.1-0.3-0.1-0.3c0-0.2,0-0.4,0-0.5c0-0.1,0-0.3,0-0.4c0-0.1,0-0.3,0-0.3
		c0-0.1,0-0.2,0-0.3s0-0.3,0-0.4c0-0.1,0-0.3,0-0.6c0-0.1,0-0.3,0.1-0.6c0.1-0.2,0.1-0.5,0.2-0.7c0.1-0.2,0.2-0.4,0.4-0.6
		c0.1-0.2,0.3-0.3,0.5-0.3c0.2,0,0.4,0.1,0.5,0.2c0.1,0.1,0.3,0.2,0.4,0.4c0.1,0,0.1,0.1,0.3,0.3c0.1,0.1,0.3,0.3,0.4,0.4
		c0.2,0.2,0.3,0.3,0.4,0.4c0.1,0.1,0.2,0.2,0.3,0.2c0,0,0,0.1,0.1,0.2s0.2,0.2,0.3,0.2c0.1,0.1,0.2,0.1,0.3,0.2
		c0.1,0.1,0.2,0.1,0.2,0.1c0,0,0.1,0.1,0.2,0.2c0.1,0.1,0.1,0.2,0.1,0.2c0,0,0.1,0.1,0.1,0.2c0.1,0.1,0.1,0.2,0.2,0.3
		c0.1,0.1,0.1,0.2,0.2,0.3c0,0.1,0.1,0.1,0.1,0.2c0.1,0.1,0.2,0.2,0.3,0.3c0.1,0.1,0.2,0.2,0.4,0.2c0.1,0.1,0.3,0.2,0.4,0.2
		c0.1,0.1,0.2,0.2,0.3,0.3c0,0,0.1,0.1,0.2,0.3c0.1,0.1,0.2,0.2,0.2,0.3c0.1,0,0.1,0.1,0.3,0.3c0.1,0.1,0.3,0.3,0.4,0.4
		c0.2,0.2,0.3,0.3,0.4,0.4c0.1,0.1,0.2,0.2,0.2,0.3c0.1,0.1,0.2,0.3,0.3,0.4c0.1,0.2,0.1,0.3,0.2,0.5c0.1,0.2,0.1,0.3,0.2,0.5
		c0.1,0.1,0.2,0.3,0.3,0.4c0,0,0.1,0.1,0.2,0.1c0.1,0.1,0.2,0.2,0.3,0.2c0.1,0.1,0.2,0.1,0.3,0.2c0.1,0.1,0.1,0.1,0.1,0.1
		c0,0,0,0.1,0.1,0.1c0,0,0,0.1,0.1,0.1c0,0,0.1,0.1,0.1,0.2c0.1,0.1,0.2,0.3,0.2,0.4c0.1,0.1,0.1,0.3,0.2,0.4
		c0.1,0.1,0.1,0.2,0.1,0.2c0,0,0.1,0.1,0.3,0.2c0.1,0.1,0.3,0.2,0.4,0.4c0.2,0.1,0.3,0.3,0.5,0.4c0.1,0.1,0.2,0.2,0.3,0.2
		c0.1,0.1,0.1,0.2,0.1,0.2c0.6,0.7,1.2,1.5,1.7,2.2c0.5,0.8,1.1,1.5,1.7,2.2c0.1,0.1,0.2,0.2,0.4,0.4c0.2,0.2,0.4,0.5,0.7,0.7
		c0.2,0.3,0.5,0.5,0.7,0.7c0.2,0.2,0.3,0.4,0.4,0.4c0.3,0.4,0.6,0.7,0.9,1.1c0.3,0.4,0.6,0.8,0.9,1.1c0.3,0.4,0.7,0.7,1,1
		c0.4,0.3,0.8,0.5,1.3,0.7c0,0,0,0,0.1,0c0,0,0.1,0,0.1,0c0.3,0,0.6-0.1,0.9-0.4c0.2-0.2,0.5-0.5,0.7-0.7c0-0.1-0.1-0.2-0.1-0.5
		c0-0.2,0-0.5,0-0.7c0-0.3,0-0.5,0-0.7c0-0.2,0-0.4,0.1-0.4c0-0.1,0-0.2,0.1-0.4c0.1-0.2,0.1-0.3,0.1-0.4v-0.1
		c0-0.7-0.1-1.5-0.2-2.2c-0.1-0.7-0.2-1.4-0.2-2.2V64c0-0.1,0-0.1,0.1-0.3c0-0.1,0-0.3,0.1-0.5c0-0.2,0-0.3,0.1-0.5
		c0-0.2,0-0.3,0.1-0.3c0-0.1,0-0.2,0.1-0.4c0.1-0.2,0.1-0.3,0.1-0.3v-2.5c0,0,0-0.1,0-0.2c0-0.1,0-0.2,0-0.3c0-0.1,0-0.2,0-0.3
		c0-0.1,0-0.1,0-0.2v-3c0.1-0.1,0.1-0.3,0.2-0.4c0-0.2,0.1-0.3,0.1-0.5v-0.5c0-0.4,0-0.8-0.1-1.1c-0.1-0.3-0.1-0.7-0.1-1.1v-0.8
		c0,0,0-0.1,0.1-0.3c0.1-0.1,0.1-0.2,0.1-0.3v-0.6V48c0-0.1,0-0.4,0.1-0.7c0-0.3,0-0.7,0.1-1c0-0.4,0-0.7,0.1-1c0-0.3,0-0.5,0-0.7
		c0-0.2,0.1-0.5,0.2-0.8c0.1-0.3,0.2-0.5,0.3-0.7c0.1-0.1,0.2-0.2,0.3-0.3c0.1-0.1,0.3-0.3,0.4-0.4c0.2-0.2,0.4-0.3,0.6-0.4
		c0.2-0.1,0.4-0.2,0.5-0.3c0.1,0,0.2-0.1,0.4-0.2c0.2-0.1,0.3-0.1,0.4-0.1c0.2-0.1,0.4-0.1,0.7-0.2c0.3-0.1,0.5-0.2,0.7-0.3
		c0.2-0.1,0.4-0.3,0.5-0.5c0.1-0.2,0.2-0.4,0.2-0.7c0-0.3,0-0.6-0.1-0.7C161.3,38.9,161.2,38.8,161.1,38.7z"/>
	<path d="M243.4,25.2c-0.3-0.2-0.6-0.4-0.9-0.5c-0.3-0.1-0.6-0.2-0.9-0.2c0,0-0.1,0-0.3,0c-0.2,0-0.4,0-0.6,0c-0.2,0-0.5,0-0.7,0
		c-0.2,0-0.4,0-0.6,0c-0.9,0-1.7,0-2.4,0.1c-0.7,0.1-1.4,0.2-2.2,0.4c0,0-0.1,0-0.3,0.1c-0.1,0-0.3,0.1-0.5,0.2
		c-0.2,0.1-0.4,0.1-0.5,0.1c-0.2,0-0.3,0.1-0.3,0.1c-0.1,0-0.4,0-0.9,0c-0.5,0-0.9,0-1.4,0c-0.5,0-0.8,0-0.9,0
		c-0.5,0.1-0.9,0.2-1.2,0.4c-0.3,0.2-0.6,0.4-0.9,0.7c-0.2,0.3-0.5,0.6-0.7,0.9c-0.2,0.3-0.4,0.7-0.5,1v0.2v0c0,0,0,0.1,0.1,0.3
		c0.1,0.1,0.1,0.2,0.1,0.3v0.1v0.1c0,0.1,0,0.2-0.1,0.4c0,0.2-0.1,0.3-0.1,0.4c0,0.1-0.2,0.4-0.3,0.8c-0.2,0.4-0.4,0.8-0.6,1.3
		c-0.2,0.5-0.4,0.9-0.6,1.3s-0.3,0.7-0.4,0.7c-0.1,0.4-0.2,0.9-0.3,1.4c-0.1,0.5-0.2,1-0.4,1.4c-0.4,1-0.9,2-1.5,2.9
		c-0.5,0.9-1,1.9-1.3,2.9c0,0.1-0.1,0.2-0.1,0.4c0,0.2-0.1,0.4-0.1,0.6c0,0.2-0.1,0.4-0.1,0.6c0,0.2-0.1,0.3-0.2,0.4
		c0,0-0.1,0.1-0.2,0.2c-0.1,0.1-0.2,0.3-0.3,0.4c-0.1,0.1-0.2,0.3-0.3,0.4c-0.1,0.1-0.2,0.2-0.2,0.2c-0.3,0.4-0.5,0.9-0.6,1.4
		c-0.1,0.5-0.4,0.9-0.7,1.4c-0.2,0.4-0.4,0.7-0.6,1c-0.2,0.3-0.4,0.6-0.6,0.9c-0.2,0.3-0.3,0.6-0.5,0.9c-0.1,0.3-0.3,0.7-0.4,1.2
		c0,0.1,0,0.2,0,0.3c0,0.1,0,0.2-0.1,0.3c0,0.1,0,0.2-0.1,0.4c-0.2,0.5-0.5,0.9-1,1.3c-0.4,0.4-0.8,0.7-1,1
		c-0.1,0.1-0.2,0.3-0.2,0.4c-0.1,0.2-0.1,0.3-0.2,0.5c-0.1,0.1-0.1,0.3-0.2,0.4c-0.1,0.1-0.2,0.1-0.4,0.1c-0.2,0-0.4-0.1-0.6-0.2
		c-0.2-0.2-0.4-0.3-0.5-0.6c-0.2-0.2-0.3-0.4-0.4-0.7c-0.1-0.2-0.2-0.4-0.3-0.6c0-0.1-0.1-0.2-0.1-0.4c0-0.2-0.1-0.3-0.1-0.5
		c0-0.2-0.1-0.3-0.1-0.4c0-0.1-0.1-0.2-0.1-0.2c0,0,0-0.2,0.1-0.5c0.1-0.3,0.1-0.4,0.1-0.5v-0.6c0-0.3-0.1-0.6-0.3-0.7
		c-0.2-0.2-0.4-0.3-0.6-0.5c-0.2-0.1-0.5-0.3-0.7-0.4c-0.2-0.1-0.4-0.3-0.5-0.6c0,0,0-0.2-0.1-0.5c-0.1-0.3-0.1-0.4-0.1-0.5
		c0,0,0-0.2,0-0.3c0-0.2,0-0.4-0.1-0.6c0-0.2,0-0.4-0.1-0.5c0-0.2,0-0.3,0-0.3c-0.3-0.8-0.7-1.5-1.1-2.1c-0.4-0.6-0.7-1.3-1-2.1
		c0,0,0-0.2,0-0.3c0-0.2,0-0.4-0.1-0.6c0-0.2-0.1-0.4-0.1-0.5c0-0.2-0.1-0.3-0.1-0.3c0,0-0.1-0.1-0.2-0.2c-0.1-0.1-0.2-0.2-0.3-0.4
		c-0.1-0.1-0.2-0.3-0.3-0.4c-0.1-0.1-0.2-0.2-0.2-0.3c0,0,0-0.2-0.1-0.5c-0.1-0.3-0.1-0.5-0.1-0.5c-0.1-0.3-0.3-0.7-0.5-1.1
		c-0.2-0.4-0.4-0.8-0.5-1.2c0-0.1,0-0.2,0-0.5c0-0.2-0.1-0.5-0.1-0.7c0-0.3-0.1-0.5-0.1-0.7c0-0.2,0-0.4,0-0.4
		c-0.1-0.6-0.3-1.1-0.6-1.5c-0.3-0.4-0.6-0.9-0.8-1.4c-0.1-0.1-0.1-0.3-0.2-0.5c0-0.3-0.1-0.4-0.1-0.4c0,0,0-0.1-0.1-0.2
		c-0.1-0.1-0.1-0.2-0.2-0.3c-0.1-0.1-0.2-0.2-0.3-0.3c-0.1-0.1-0.1-0.2-0.2-0.2c-0.5-0.7-1-1.3-1.5-1.9c-0.5-0.6-1.2-1-2-1.4h-5.4
		c-0.2,0-0.4-0.1-0.6-0.1c-0.1,0-0.3-0.1-0.4-0.1c-0.1,0-0.2,0-0.3,0h-2.3H187c-0.1,0-0.2,0-0.4,0.1c-0.2,0-0.5,0.1-0.7,0.2
		c-0.3,0.1-0.5,0.1-0.7,0.2c-0.2,0-0.4,0.1-0.4,0.1h-0.8c0,0-0.1,0.1-0.3,0.2c-0.1,0.1-0.2,0.2-0.2,0.3c0.2,0.6,0.4,1,0.7,1.3
		c0.2,0.3,0.5,0.5,0.9,0.6c0.3,0.1,0.7,0.2,1.1,0.3c0.4,0.1,0.9,0.2,1.4,0.3c0,0,0.1,0,0.3,0.1c0.1,0,0.3,0.1,0.5,0.2
		c0.2,0.1,0.3,0.1,0.5,0.2c0.1,0,0.2,0.1,0.3,0.1c0.5,0,1,0.1,1.5,0.1c0.5,0,1,0.2,1.3,0.7c0,0.1,0,0.3,0.1,0.5c0,0.2,0,0.5,0.1,0.7
		c0,0.3,0,0.5,0.1,0.7c0,0.2,0,0.4,0,0.5c0,0,0,0.1,0,0.2c0,0.1,0,0.3-0.1,0.4c0,0.2,0,0.3-0.1,0.5c0,0.2,0,0.3-0.1,0.3
		c0,0-0.1,0.2-0.2,0.4c-0.1,0.2-0.1,0.4-0.1,0.4c0,0,0,0.1,0.1,0.2c0.1,0.1,0.1,0.2,0.2,0.4c0.1,0.1,0.1,0.3,0.2,0.4
		c0,0.1,0.1,0.2,0.1,0.3c0,0,0,0.1,0,0.3c0,0.2-0.1,0.4-0.1,0.5s-0.1,0.4-0.1,0.5c0,0.2,0,0.3,0,0.3c0,0.1,0,0.5-0.1,1
		c-0.1,0.5-0.1,1.1-0.2,1.6c-0.1,0.6-0.1,1.1-0.2,1.6c-0.1,0.5-0.1,0.8-0.1,0.9c0,0,0,0.2-0.1,0.3c0,0.2-0.1,0.3-0.1,0.5
		c0,0.2-0.1,0.3-0.1,0.5c0,0.1-0.1,0.2-0.1,0.3c-0.2,1-0.4,2.1-0.5,3.2c-0.1,1.1-0.1,2.2-0.1,3.3V54c0,0.1,0.1,0.3,0.2,0.5
		c0.1,0.3,0.2,0.4,0.2,0.5c0,0.9-0.1,1.7-0.3,2.7c-0.2,0.9-0.4,1.8-0.5,2.7c0,0,0,0.2-0.1,0.3c0,0.2-0.1,0.4-0.1,0.5
		c0,0.2-0.1,0.4-0.1,0.5c0,0.2-0.1,0.3-0.1,0.3v0.7v1.6c0,0.1-0.1,0.3-0.2,0.7c-0.1,0.3-0.1,0.5-0.2,0.6c0,0.1,0,0.4,0,0.7
		c0,0.3-0.1,0.7-0.1,1.1c0,0.4-0.1,0.7-0.1,1.1c0,0.3,0,0.6,0,0.7c0,0.1-0.1,0.2-0.3,0.3s-0.3,0.3-0.5,0.5c-0.2,0.2-0.3,0.3-0.4,0.5
		c-0.1,0.1-0.2,0.2-0.3,0.3c0,0-0.1,0.1-0.2,0.1c-0.1,0.1-0.2,0.1-0.3,0.2c-0.1,0-0.4,0-0.7,0c-0.3,0-0.7,0-1.1,0
		c-0.4,0-0.8,0-1.1,0c-0.4,0-0.6,0-0.7,0c-0.4,0-0.8,0.2-1.1,0.6c-0.4,0.4-0.5,0.8-0.5,1.3c0,0,0,0.1,0.1,0.3
		c0.1,0.2,0.2,0.4,0.3,0.6c0.1,0.2,0.2,0.4,0.3,0.5c0.1,0.2,0.2,0.2,0.3,0.2h6.9c0.1,0,0.2,0.1,0.4,0.1c0.2,0,0.3,0.1,0.5,0.2
		c0.2,0.1,0.4,0.1,0.5,0.1c0.2,0,0.3,0.1,0.3,0.1c0,0,0.1,0,0.2,0c0.1,0,0.2-0.1,0.3-0.1c0.1,0,0.2-0.1,0.3-0.1c0.1,0,0.2,0,0.2,0
		h0.9c1,0,2,0,3.1,0.1c1,0.1,2,0.1,3.1,0.1c0.2,0,0.5,0,0.8,0c0.3,0,0.5-0.1,0.7-0.2s0.4-0.2,0.5-0.4c0.1-0.2,0.2-0.5,0.2-0.8
		c0-0.2,0-0.4-0.1-0.6c-0.1-0.1-0.2-0.3-0.3-0.3c-0.1-0.1-0.3-0.1-0.5-0.2c-0.2,0-0.4-0.1-0.6-0.2c0,0-0.2-0.1-0.3-0.3
		c-0.2-0.1-0.3-0.2-0.3-0.3c-0.5-0.2-1.2-0.4-1.9-0.5c-0.7-0.1-1.4-0.2-1.9-0.2c-0.2-0.1-0.3-0.3-0.5-0.6c-0.1-0.2-0.2-0.5-0.3-0.7
		c-0.1-0.3-0.1-0.5-0.2-0.8c-0.1-0.3-0.2-0.5-0.3-0.7v-5.5c-0.1-0.3-0.2-0.5-0.3-0.6c0-0.2-0.1-0.3-0.1-0.6v-0.4
		c0,0,0.1-0.2,0.1-0.3c0.1-0.2,0.1-0.4,0.2-0.6c0.1-0.2,0.1-0.4,0.2-0.5c0-0.2,0.1-0.3,0.1-0.3v-3.8c0,0,0-0.1,0-0.2
		c0-0.1,0.1-0.2,0.1-0.3c0-0.1,0.1-0.3,0.1-0.5c0-0.8-0.1-1.6-0.3-2.4c-0.2-0.8-0.3-1.6-0.3-2.4c0-0.6,0.1-1.2,0.2-1.8
		c0.1-0.6,0.2-1.2,0.4-1.7V46c0-0.3,0-0.6-0.1-0.9c-0.1-0.3-0.1-0.5-0.1-0.8v-0.4c0-0.2,0.1-0.4,0.1-0.5c0-0.1,0.1-0.3,0.1-0.5
		c0-0.5,0-0.9,0.1-1.3c0-0.4,0-0.7,0.1-1.1c0-0.4,0.1-0.7,0.1-1.1c0-0.4,0.1-0.8,0.2-1.2h0.2c0.5,0,0.9,0.1,1.1,0.4
		c0.3,0.3,0.5,0.6,0.7,1c0.2,0.4,0.3,0.8,0.5,1.2c0.1,0.4,0.3,0.7,0.5,1l0.8,0.8c0,0.1,0.1,0.2,0.2,0.3c0.1,0.1,0.1,0.3,0.2,0.4
		c0.1,0.2,0.1,0.3,0.2,0.4c0.1,0.1,0.1,0.2,0.2,0.3c0,0,0,0.2,0,0.3c0,0.2,0,0.4,0.1,0.5c0,0.2,0,0.4,0.1,0.6c0,0.2,0,0.3,0,0.4
		c0,0,0.1,0.1,0.1,0.2c0.1,0.1,0.1,0.2,0.2,0.4c0.1,0.1,0.1,0.3,0.2,0.4c0,0.1,0.1,0.2,0.1,0.3c0,0,0,0.2,0.1,0.3
		c0.1,0.2,0.1,0.3,0.1,0.3c0,0,0.1,0.2,0.3,0.4c0.1,0.2,0.2,0.3,0.3,0.4c0,0,0,0.1,0,0.3c0,0.1,0,0.3,0,0.5c0,0.2,0,0.3,0.1,0.5
		c0,0.1,0,0.2,0.1,0.3c0.4,1.3,0.9,2.5,1.5,3.7s1.1,2.4,1.5,3.6c0.3,0.9,0.6,1.7,0.8,2.5c0.2,0.8,0.5,1.6,1,2.4c0,0,0.1,0.2,0.2,0.4
		c0.1,0.2,0.3,0.5,0.4,0.7c0.1,0.3,0.3,0.5,0.4,0.7c0.1,0.2,0.2,0.4,0.2,0.4c0.2,0.4,0.3,0.8,0.5,1.2c0.1,0.4,0.2,0.7,0.3,1.1
		c0.1,0.4,0.2,0.7,0.2,1.1c0.1,0.4,0.2,0.8,0.3,1.2c0,0.3,0.2,0.7,0.3,1.1c0.2,0.4,0.4,0.9,0.7,1.3c0.3,0.4,0.5,0.8,0.9,1.1
		c0.3,0.3,0.6,0.5,0.9,0.5c0.3,0,0.6-0.1,0.9-0.3c0.3-0.2,0.5-0.4,0.8-0.5c0.1-0.1,0.2-0.3,0.3-0.6c0.1-0.3,0.3-0.6,0.5-0.9
		c0.2-0.3,0.3-0.6,0.5-0.9c0.1-0.3,0.2-0.5,0.3-0.6c0,0,0-0.2,0.1-0.5c0.1-0.3,0.1-0.4,0.1-0.6c0,0,0-0.1,0-0.3c0-0.2,0-0.4,0.1-0.5
		c0-0.2,0-0.4,0.1-0.5c0-0.2,0-0.3,0-0.3c0-0.1,0.1-0.2,0.3-0.5c0.1-0.3,0.3-0.5,0.4-0.8c0.1-0.3,0.3-0.6,0.4-0.8
		c0.1-0.2,0.2-0.4,0.2-0.4c0,0,0.1-0.2,0.2-0.4c0.1-0.2,0.2-0.5,0.3-0.7c0.1-0.3,0.2-0.5,0.3-0.8c0.1-0.3,0.2-0.4,0.3-0.6
		c0.2-0.6,0.4-1.3,0.5-1.9c0.1-0.7,0.3-1.3,0.5-1.9c0,0,0.1-0.2,0.3-0.3c0.1-0.2,0.2-0.3,0.3-0.3c0,0,0-0.2,0.1-0.4
		c0-0.2,0.1-0.3,0.1-0.4c0.1-0.1,0.1-0.4,0.2-0.7c0-0.4,0.2-0.6,0.3-0.7c0,0,0.1-0.2,0.3-0.3c0.2-0.2,0.3-0.3,0.5-0.5
		c0.2-0.2,0.3-0.3,0.5-0.5c0.1-0.1,0.2-0.2,0.3-0.3c0,0,0-0.1,0-0.2c0-0.1,0-0.3,0.1-0.4c0-0.1,0.1-0.3,0.1-0.4
		c0-0.1,0.1-0.2,0.1-0.2c0.1-0.3,0.2-0.5,0.4-0.6c0.2-0.1,0.3-0.4,0.3-0.7c0.2-0.7,0.4-1.3,0.5-2c0.1-0.7,0.3-1.4,0.5-2
		c0.3-0.7,0.6-1.3,1-1.9c0.4-0.6,0.7-1.2,1-1.9c0-0.1,0-0.2,0.1-0.3c0.1-0.1,0.1-0.2,0.1-0.3c0,0,0.1-0.1,0.3-0.2
		c0.1-0.1,0.3-0.2,0.4-0.4c0.1-0.1,0.3-0.3,0.4-0.4c0.1-0.1,0.2-0.2,0.2-0.3c0.1-0.1,0.2-0.3,0.3-0.4c0.1-0.2,0.2-0.3,0.3-0.5
		c0.1-0.1,0.2-0.3,0.3-0.4c0.1-0.1,0.3-0.2,0.5-0.2c0.1,0,0.2,0.1,0.3,0.3c0.1,0.2,0.2,0.4,0.3,0.6c0.1,0.2,0.2,0.5,0.2,0.7
		c0,0.2,0.1,0.4,0.1,0.4c0,0.2,0,0.6,0.1,1.1c0,0.5,0,1,0.1,1.5c0,0.5,0,1,0.1,1.5c0,0.5,0,0.8,0,1c0,0,0,0.4,0,0.9
		c0,0.6,0,1.2,0.1,1.9c0,0.7,0,1.5,0.1,2.2c0,0.7,0,1.3,0,1.8c0,0.3,0,0.7,0,1.3c0,0.6,0,1.3-0.1,2c0,0.7,0,1.4-0.1,2
		c0,0.6,0,1.1,0,1.3c-0.2,1.6-0.3,3.2-0.5,4.7c-0.1,1.6-0.3,3.1-0.6,4.7c0,0.2,0,0.5,0,0.9c0,0.4-0.1,0.7-0.2,1.1
		c-0.1,0.4-0.2,0.7-0.4,1c-0.2,0.3-0.4,0.5-0.7,0.6c0,0-0.1,0.1-0.2,0.1c-0.1,0-0.2,0.1-0.4,0.1c-0.1,0-0.3,0-0.4,0.1
		c-0.1,0-0.2,0-0.3,0c0,0-0.2,0-0.3,0.1c-0.2,0.1-0.3,0.1-0.3,0.1c-0.2,0-0.5,0-0.9,0.1c-0.4,0.1-0.7,0.1-0.9,0.1v0.3
		c0,0.3,0.2,0.7,0.5,1c0.3,0.3,0.7,0.5,1,0.5h0.6h2c0,0,0.1,0,0.2-0.1c0.1,0,0.3-0.1,0.4-0.1c0.1,0,0.3-0.1,0.4-0.1
		c0.1,0,0.2-0.1,0.2-0.1h0.3h0.3c0,0,0.2,0,0.5-0.1c0.3-0.1,0.4-0.1,0.6-0.1h12.1c0.4,0,0.8-0.1,1.1-0.4c0.3-0.3,0.5-0.6,0.5-0.9
		c0,0,0-0.1,0-0.3c0-0.1,0-0.2,0-0.3c0,0-0.1-0.1-0.2-0.1c-0.1-0.1-0.3-0.1-0.5-0.2c-0.2-0.1-0.3-0.1-0.5-0.2
		c-0.1-0.1-0.3-0.1-0.3-0.1c0,0-0.1,0-0.3-0.1c-0.1,0-0.3-0.1-0.5-0.1c-0.2,0-0.3-0.1-0.5-0.1c-0.1,0-0.2,0-0.3-0.1
		c0,0-0.1,0-0.3-0.1c-0.1,0-0.3-0.1-0.5-0.1c-0.2,0-0.3-0.1-0.5-0.1c-0.2,0-0.2-0.1-0.3-0.1h-1c-0.1,0-0.1,0-0.2-0.1
		c0-0.1-0.1-0.1-0.1-0.2c0,0,0-0.1-0.1-0.3c-0.1-0.1-0.1-0.2-0.2-0.3c0,0-0.1-0.1-0.2-0.2c-0.1-0.1-0.2-0.2-0.3-0.4
		c-0.1-0.1-0.2-0.3-0.3-0.4c-0.1-0.1-0.2-0.2-0.2-0.3c0-0.1-0.1-0.2-0.3-0.5c-0.1-0.3-0.2-0.4-0.2-0.5v-0.4v-0.6
		c0-0.1,0-0.3,0.1-0.5c0.1-0.3,0.1-0.4,0.1-0.4c0,0,0-0.1,0-0.3c0-0.2,0-0.4,0-0.6c0-0.2,0-0.5,0-0.7c0-0.2,0-0.4,0-0.6
		c0-0.1,0-0.2,0-0.4c0-0.2,0-0.4,0-0.7c0-0.2,0-0.4,0-0.7c0-0.2,0-0.3,0-0.4c-0.1-0.2-0.2-0.4-0.2-0.5c0-0.2,0-0.3,0-0.5v-0.4
		c0-0.6,0.1-1.2,0.3-1.8c0.2-0.5,0.3-1.1,0.3-1.8c0-0.7-0.1-1.3-0.2-2c-0.1-0.7-0.2-1.4-0.4-2V53v-0.2c0,0,0-0.2,0.1-0.4
		c0.1-0.2,0.1-0.3,0.1-0.4c0-2.2,0-4.5,0.1-6.7c0.1-2.2,0.2-4.4,0.2-6.6c0-0.1,0-0.3,0-0.6c0-0.3,0-0.6,0-0.9c0-0.3,0-0.6,0-0.9
		c0-0.3,0-0.5,0-0.6c0-0.3-0.1-0.5-0.2-0.7c-0.1-0.2-0.1-0.3-0.2-0.5c0-0.2-0.1-0.3-0.1-0.5c0-0.2,0-0.4,0-0.7v-0.6
		c0-0.3,0-0.7,0-1.1c0-0.4,0.1-0.8,0.1-1.1c0.1-0.4,0.2-0.7,0.4-1c0.2-0.3,0.4-0.5,0.7-0.7c0.5-0.2,0.9-0.4,1.3-0.4
		c0.4-0.1,0.8-0.1,1.2-0.1c0.4,0,0.8,0,1.2,0.1c0.4,0.1,0.8,0.1,1.2,0.1c0.1,0,0.3-0.1,0.5-0.2c0.2-0.1,0.4-0.3,0.7-0.5
		c0.2-0.2,0.4-0.4,0.6-0.6c0.2-0.2,0.2-0.4,0.2-0.6c0-0.3-0.1-0.6-0.3-0.9C243.9,25.6,243.7,25.4,243.4,25.2z"/>
	<path d="M280.6,72.5c-0.1-0.1-0.2-0.1-0.4-0.2c-0.1-0.1-0.2-0.1-0.3-0.2c-0.1,0-0.2,0-0.4,0c-0.2,0-0.5-0.1-0.7-0.1
		c-0.3,0-0.5-0.1-0.7-0.1c-0.2,0-0.4-0.1-0.4-0.1c0,0-0.1-0.1-0.3-0.2c-0.2-0.1-0.3-0.2-0.4-0.2c0,0,0-0.1-0.1-0.1
		c-0.1,0-0.1-0.1-0.1-0.1c-0.4-0.3-0.7-0.6-0.9-0.9c-0.2-0.3-0.3-0.6-0.4-1c-0.1-0.3-0.2-0.7-0.3-1.1c-0.1-0.4-0.3-0.7-0.5-1.1
		c0,0-0.1-0.1-0.1-0.2c-0.1-0.1-0.2-0.2-0.2-0.3c-0.1-0.1-0.2-0.2-0.2-0.3c-0.1-0.1-0.1-0.2-0.1-0.2V66v-0.2c0-0.1,0-0.1,0.1-0.2
		c0-0.1,0-0.2,0.1-0.4c0-0.1,0-0.3,0.1-0.4c0-0.1,0-0.2,0.1-0.3c-0.3-0.7-0.6-1.4-0.8-2.1c-0.2-0.7-0.5-1.4-0.8-2.2
		c0,0-0.1-0.1-0.1-0.2c-0.1-0.1-0.1-0.2-0.1-0.2c-0.2-1.1-0.4-2.2-0.7-3.2c-0.3-1-0.7-2.1-1.2-3c0-0.2-0.1-0.4-0.2-0.8
		c-0.1-0.4-0.2-0.8-0.3-1.2c-0.1-0.4-0.2-0.8-0.3-1.2c-0.1-0.4-0.2-0.7-0.2-0.8c0,0-0.1-0.1-0.1-0.2c0-0.1-0.1-0.2-0.1-0.3
		c0-0.1-0.1-0.2-0.1-0.3c0-0.1-0.1-0.2-0.1-0.2c0-0.1,0-0.2,0-0.4c0-0.2-0.1-0.4-0.1-0.7c0-0.2-0.1-0.5-0.1-0.7
		c0-0.2-0.1-0.3-0.1-0.4c-0.1-0.3-0.2-0.7-0.3-1c-0.2-0.4-0.3-0.7-0.4-1.1v-0.9c0,0,0-0.1-0.1-0.2c0-0.1-0.1-0.2-0.1-0.3
		c0,0-0.1-0.1-0.1-0.1c0-0.1-0.1-0.2-0.1-0.2c-0.2-0.6-0.3-1.3-0.4-2c-0.1-0.7-0.2-1.4-0.4-2.1c0-0.2-0.1-0.4-0.3-0.6
		c-0.2-0.2-0.4-0.3-0.5-0.5c-0.1,0-0.2,0-0.5,0c-0.2,0-0.4,0-0.5,0c-0.3,0-0.6,0-0.9,0.1c-0.2,0.1-0.5,0.2-0.7,0.3
		c-0.2,0.1-0.4,0.3-0.6,0.4c-0.2,0.2-0.5,0.3-0.7,0.5c0,0-0.1,0.1-0.1,0.1c-0.1,0-0.1,0.1-0.2,0.1c-0.1,0.1-0.1,0.1-0.2,0.1
		c-0.1,0.1-0.1,0.2-0.2,0.4c-0.1,0.2-0.1,0.3-0.2,0.4v1V41c0,0.1,0,0.1-0.1,0.3c-0.1,0.1-0.1,0.3-0.2,0.4c-0.1,0.2-0.2,0.3-0.3,0.4
		c-0.1,0.1-0.1,0.2-0.2,0.3c0,0.1,0,0.2,0,0.3c0,0.2,0,0.3,0,0.5c0,0.1,0,0.2-0.1,0.3c0,0.5-0.1,1-0.4,1.4c-0.2,0.4-0.4,0.8-0.6,1.3
		c-0.2,0.5-0.3,1.1-0.4,1.7c-0.1,0.6-0.3,1.1-0.4,1.6c0,0.1-0.1,0.1-0.1,0.3c0,0.1-0.1,0.3-0.2,0.4c-0.1,0.2-0.1,0.3-0.2,0.4
		c-0.1,0.1-0.1,0.2-0.1,0.3c0,0,0,0.1,0,0.2c0,0.1-0.1,0.2-0.1,0.3c0,0.1-0.1,0.2-0.1,0.3c0,0.1-0.1,0.2-0.1,0.2
		c0,0-0.1,0.1-0.1,0.3c-0.1,0.1-0.2,0.3-0.2,0.4s-0.2,0.3-0.2,0.4c-0.1,0.1-0.1,0.2-0.1,0.3v0.7c0,0.1,0,0.2-0.1,0.4
		c0,0.2-0.1,0.3-0.1,0.5c0,0.2-0.1,0.3-0.1,0.5c0,0.1,0,0.2-0.1,0.3c0,0-0.1,0.1-0.2,0.2c-0.1,0.1-0.2,0.2-0.2,0.2
		c0,0,0,0.1-0.1,0.3c0,0.1-0.1,0.2-0.1,0.3c-0.1,0.4-0.1,0.8-0.2,1.2c-0.1,0.4-0.2,0.8-0.5,1.1l-0.3,3c-0.1,0.1-0.2,0.2-0.2,0.4
		c-0.1,0.2-0.1,0.3-0.2,0.4c0,0,0,0.1,0,0.3c0,0.1,0,0.3-0.1,0.5c0,0.2,0,0.3-0.1,0.4c0,0.1,0,0.2-0.1,0.2c0,0,0,0.1-0.1,0.2
		s-0.1,0.1-0.2,0.2c-0.1,0.1-0.2,0.1-0.2,0.2c-0.1,0.1-0.1,0.1-0.1,0.1c-0.1,0.1-0.2,0.4-0.3,0.7c-0.1,0.3-0.2,0.6-0.3,0.9
		c-0.1,0.3-0.2,0.6-0.3,0.8c-0.1,0.2-0.3,0.4-0.4,0.4v2.5l-0.3,0.4c0,0-0.1,0.1-0.3,0.2c-0.2,0.1-0.4,0.2-0.7,0.3
		c-0.3,0.1-0.5,0.3-0.8,0.4c-0.3,0.1-0.5,0.2-0.7,0.3c0,0-0.1,0-0.2,0.1c-0.1,0-0.2,0-0.4,0.1c-0.1,0-0.2,0-0.3,0
		c-0.1,0-0.2,0-0.2,0c-0.2,0.1-0.4,0.2-0.7,0.3s-0.4,0.3-0.4,0.5c0,0.3,0,0.6,0.1,1c0.1,0.3,0.1,0.6,0.2,0.9
		c0.1,0.1,0.1,0.1,0.1,0.2c0,0.1,0.1,0.2,0.1,0.2h3.5h3.5c0.2,0,0.5,0,1,0c0.5,0,1,0,1.5-0.1c0.5,0,1,0,1.5-0.1c0.5,0,0.8,0,1,0
		c0.1,0,0.1-0.1,0.2-0.1c0.1-0.1,0.1-0.1,0.2-0.2c0.1-0.1,0.1-0.2,0.2-0.2c0.1-0.1,0.1-0.1,0.1-0.2v-0.4c0-0.4-0.1-0.7-0.4-1
		c-0.2-0.3-0.5-0.5-0.9-0.6c-0.3-0.2-0.7-0.3-1.1-0.4c-0.4-0.1-0.7-0.2-1-0.2c-0.1,0-0.1,0-0.3-0.1c-0.1,0-0.3-0.1-0.4-0.1
		c-0.2,0-0.3-0.1-0.4-0.1c-0.1,0-0.2-0.1-0.3-0.1c0,0-0.1-0.1-0.1-0.2c-0.1-0.1-0.1-0.2-0.2-0.2l-0.2-0.4c0,0,0.1-0.1,0.2-0.3
		c0.1-0.2,0.2-0.3,0.2-0.4c0.1-0.3,0.1-0.6,0.1-1c0-0.3,0-0.6,0.1-1c0-0.3,0.1-0.6,0.2-0.9c0.1-0.3,0.3-0.6,0.5-0.9l0.7-3.9l0.2-0.2
		c0.1,0,0.2,0,0.4,0c0.2,0,0.4,0,0.7-0.1c0.2,0,0.4,0,0.6-0.1c0.2,0,0.3,0,0.4-0.1c0.1,0,0.1,0,0.2-0.1c0.1-0.1,0.2-0.1,0.2-0.1
		c0.5-0.1,1.1-0.1,1.8-0.2s1.3,0,1.9,0h1.4c0.1,0,0.2,0,0.3-0.1c0.1,0,0.2-0.1,0.3-0.1c0.1,0,0.1,0,0.2-0.1l0.2-0.1
		c0.1,0,0.1,0,0.2,0c0.1,0,0.2,0,0.4,0c0.1,0,0.3,0,0.4,0.1c0.1,0,0.2,0,0.3,0.1c0.2,0,0.3,0.1,0.4,0.2c0.1,0.1,0.2,0.2,0.3,0.4
		c0.1,0.2,0.1,0.3,0.2,0.5c0.1,0.2,0.1,0.3,0.2,0.5c0,0,0,0.1,0.1,0.2c0,0.1,0.1,0.2,0.1,0.3c0,0.1,0.1,0.2,0.1,0.3
		c0,0.1,0.1,0.1,0.1,0.2c0,0.1,0,0.2,0.1,0.3c0,0.2,0.1,0.4,0.1,0.6c0.1,0.2,0.1,0.4,0.1,0.6c0,0.2,0.1,0.3,0.1,0.3
		c0.1,0.4,0.2,0.8,0.4,1.3c0.1,0.4,0.3,0.9,0.4,1.3c0.1,0.5,0.2,0.9,0.3,1.4c0.1,0.5,0.1,0.9,0.1,1.4v0.9c0,0,0,0.1-0.1,0.1
		c0,0.1-0.1,0.1-0.1,0.1c0,0-0.1,0-0.2,0c-0.1,0-0.2,0-0.3,0c-0.1,0-0.2,0-0.3,0.1c-0.1,0-0.1,0-0.2,0.1c0,0-0.1,0.1-0.2,0.1
		c-0.1,0.1-0.2,0.1-0.3,0.2c-0.1,0.1-0.2,0.2-0.3,0.2c-0.1,0.1-0.2,0.1-0.2,0.1c0,0-0.1,0-0.2,0.1c-0.1,0-0.2,0-0.3,0.1
		c-0.1,0-0.2,0-0.3,0.1c-0.1,0-0.2,0-0.2,0c-0.1,0-0.2,0.1-0.2,0.3c-0.1,0.1-0.1,0.2-0.1,0.3c-0.1,0.2-0.1,0.3-0.2,0.4
		c0,0.1-0.1,0.2-0.1,0.3c0,0.2,0.1,0.4,0.2,0.5s0.2,0.3,0.4,0.4c0.2,0,0.7,0,1.3,0c0.6,0,1.3,0,2.1,0c0.7,0,1.4,0,2,0
		c0.6,0,1.1,0,1.4,0c0.1,0,0.2,0,0.4,0c0.2,0,0.4,0,0.6,0.1c0.2,0,0.4,0,0.6,0.1c0.2,0,0.3,0,0.3,0h2.9c0.1,0.1,0.3,0.1,0.4,0.2
		c0.1,0,0.2,0,0.4,0h0.3h0.6c0.1,0,0.2-0.1,0.3-0.3c0.1-0.2,0.2-0.4,0.3-0.7c0.1-0.3,0.2-0.5,0.2-0.7c0.1-0.2,0.1-0.4,0.1-0.4
		c0-0.1,0-0.2-0.1-0.3C280.9,72.6,280.8,72.6,280.6,72.5z M266.7,57.9c0,0.2-0.1,0.4-0.2,0.5c0,0-0.1,0-0.2,0.1
		c-0.1,0.1-0.2,0.1-0.3,0.2c-0.1,0.1-0.2,0.1-0.3,0.2c-0.1,0.1-0.2,0.1-0.3,0.1h-0.2c-0.3,0-0.6,0-0.9-0.1c-0.3-0.1-0.6-0.1-0.9-0.1
		c-0.3,0-0.6,0.1-0.9,0.2c-0.3,0.1-0.6,0.2-0.9,0.2c-0.3,0-0.5-0.1-0.7-0.2c-0.2-0.1-0.4-0.2-0.6-0.4c-0.2-0.2-0.3-0.3-0.5-0.6
		c-0.1-0.2-0.3-0.4-0.4-0.7c0,0,0-0.1-0.1-0.3c0-0.1-0.1-0.2-0.1-0.3v-0.1v-0.1c0-0.1,0-0.2,0-0.3c0-0.1,0-0.2,0.1-0.4
		c0-0.1,0-0.3,0.1-0.4c0,0,0.1-0.1,0.1-0.2c0.1-0.1,0.1-0.2,0.2-0.4c0.1-0.1,0.1-0.2,0.2-0.3c0.1-0.1,0.1-0.2,0.1-0.2
		c0,0,0-0.1,0.1-0.2c0-0.1,0-0.3,0.1-0.4c0-0.1,0-0.3,0.1-0.4c0-0.1,0-0.2,0-0.2c0.1-0.3,0.2-0.7,0.4-1c0.2-0.4,0.4-0.7,0.5-1.1
		c0,0,0-0.1,0-0.3c0-0.2,0-0.3,0.1-0.5c0-0.2,0-0.4,0-0.5c0-0.2,0-0.3,0-0.3c0,0,0.1-0.1,0.1-0.2c0.1-0.1,0.1-0.2,0.2-0.3
		c0.1-0.1,0.1-0.2,0.2-0.3c0.1-0.1,0.1-0.2,0.1-0.2v-0.5c0-0.1,0.1-0.3,0.1-0.5c0.1-0.2,0.1-0.4,0.2-0.5c0.1-0.2,0.2-0.3,0.3-0.4
		c0.1-0.1,0.3-0.2,0.4-0.2c0.1,0,0.2,0,0.2,0.1c0,0,0.1,0.1,0.1,0.3c0,0.1,0.1,0.1,0.1,0.3c0.1,0.1,0.1,0.3,0.2,0.4
		c0.1,0.2,0.1,0.3,0.2,0.4c0.1,0.1,0.1,0.2,0.1,0.3c0,0.1,0.1,0.3,0.2,0.5c0.1,0.2,0.1,0.4,0.2,0.7c0.1,0.2,0.1,0.4,0.2,0.6
		c0.1,0.2,0.1,0.3,0.1,0.3c0.2,0.8,0.5,1.5,0.7,2.3c0.2,0.8,0.5,1.5,0.7,2.3c0.1,0.4,0.3,0.8,0.4,1.2c0.2,0.4,0.3,0.9,0.3,1.3
		C266.7,57.5,266.7,57.6,266.7,57.9z"/>
	<path d="M313.3,72c-0.4-0.2-0.7-0.3-1.2-0.5c-0.4-0.1-0.8-0.3-1.1-0.6c-0.5-0.4-1-0.9-1.4-1.5c-0.4-0.6-0.8-1.2-1.2-1.7
		c-0.2-0.2-0.3-0.4-0.4-0.5c-0.1-0.1-0.2-0.3-0.3-0.4c-0.1-0.1-0.2-0.3-0.3-0.4c-0.1-0.2-0.2-0.3-0.3-0.6c-0.1-0.2-0.3-0.5-0.4-0.7
		c-0.1-0.2-0.2-0.5-0.4-0.7c0,0-0.1-0.1-0.1-0.2c0-0.1-0.1-0.1-0.1-0.2c0,0-0.1-0.1-0.1-0.3c-0.1-0.1-0.1-0.2-0.1-0.3
		c-0.5-0.7-1-1.3-1.5-1.8c-0.5-0.5-1.1-1.1-1.7-1.6c-0.1,0-0.1,0-0.1-0.1c0,0,0,0-0.1-0.1c0.1-0.3,0.3-0.6,0.5-1
		c0.2-0.4,0.4-0.6,0.7-0.8c0-0.1,0.2-0.1,0.4-0.1c0.2,0,0.3-0.1,0.4-0.1c0.5-0.2,1-0.5,1.5-0.9c0.5-0.4,0.9-0.9,1.4-1.4
		c0.4-0.5,0.8-1,1.1-1.6c0.3-0.6,0.5-1.1,0.6-1.6c0,0,0-0.1,0.1-0.2c0-0.1,0-0.2,0.1-0.3c0-0.1,0-0.2,0-0.3c0-0.1,0-0.1,0-0.2
		c0,0,0-0.1,0.1-0.1c0-0.1,0.1-0.1,0.1-0.2c0.1-0.1,0.1-0.1,0.1-0.2c0-0.1,0.1-0.1,0.1-0.2v-1.4V49c0,0,0-0.1,0.1-0.2
		c0-0.1,0.1-0.2,0.1-0.3c0-0.1,0.1-0.2,0.1-0.3c0-0.1,0.1-0.1,0.1-0.2v-0.2v0c0,0,0-0.1-0.1-0.1c0-0.1-0.1-0.2-0.1-0.2
		c0-0.1-0.1-0.1-0.1-0.2c0-0.1-0.1-0.1-0.1-0.1c-0.2-0.5-0.4-1-0.5-1.5c-0.1-0.5-0.3-0.9-0.6-1.4c-0.1-0.2-0.4-0.4-0.7-0.6
		c-0.3-0.2-0.6-0.4-0.9-0.7c0,0-0.1-0.1-0.2-0.3c-0.1-0.1-0.2-0.2-0.2-0.3c-0.1-0.1-0.2-0.2-0.3-0.3c-0.1-0.1-0.3-0.3-0.4-0.4
		c-0.1-0.1-0.3-0.3-0.5-0.5l-2.8-0.9c0,0-0.1-0.1-0.3-0.3c-0.1-0.1-0.2-0.2-0.3-0.2c-0.1,0-0.2-0.1-0.3-0.1c-0.1,0-0.3,0-0.4,0
		c-0.2,0-0.3,0-0.5-0.1c-0.2,0-0.3-0.1-0.4-0.2h-1c-0.4,0-0.8,0-1.2,0.1c-0.4,0.1-0.8,0.1-1.2,0.2c-0.4,0.1-0.8,0.1-1.2,0.2
		c-0.4,0.1-0.8,0.1-1.3,0.1c-0.2,0-0.4-0.1-0.5-0.2c-0.1-0.1-0.3-0.2-0.5-0.2c-0.1,0-0.3,0-0.4,0c-0.1,0-0.2,0.1-0.4,0.2
		c-0.5,0-1,0.1-1.6,0.1c-0.5,0.1-1.1,0.1-1.7,0.1c-0.6,0-1.2,0-1.8-0.1c-0.6-0.1-1.2-0.1-1.8-0.1c-0.2-0.1-0.4-0.1-0.5-0.2
		c-0.2,0-0.3,0-0.5,0c-0.1,0-0.2,0-0.4,0.1c-0.2,0-0.3,0.1-0.4,0.2c-0.1,0.1-0.2,0.2-0.3,0.3c-0.1,0.1-0.1,0.2-0.1,0.4
		c0,0.4,0.2,0.7,0.5,0.9c0.3,0.3,0.6,0.4,1,0.5c0.1,0,0.2,0.1,0.4,0.1c0.2,0.1,0.4,0.1,0.6,0.2c0.2,0.1,0.4,0.1,0.6,0.2
		c0.2,0.1,0.3,0.1,0.4,0.1c0.1,0,0.2,0.1,0.5,0.1c0.2,0,0.4,0.1,0.4,0.1c0,0,0.1,0,0.1,0.1c0.1,0.1,0.1,0.1,0.2,0.2
		c0.1,0.1,0.2,0.1,0.2,0.2c0.1,0.1,0.1,0.1,0.2,0.2c0,0,0.1,0.1,0.2,0.3c0.1,0.1,0.2,0.2,0.2,0.3v0.2v0.2c0,0,0,0.1,0,0.2
		c0,0.1,0,0.2-0.1,0.3c0,0.1,0,0.2-0.1,0.4c0,0.1,0,0.2,0,0.2v1.4c0,0.1-0.1,0.3-0.1,0.6c-0.1,0.3-0.1,0.7-0.2,1.1
		c-0.1,0.4-0.1,0.7-0.2,1.1c0,0.3-0.1,0.5-0.1,0.6v0.6v1.6c0,0.1,0,0.1-0.1,0.3c0,0.1,0,0.3-0.1,0.4c0,0.2,0,0.3-0.1,0.4
		c0,0.1,0,0.3-0.1,0.3c0,0,0,0.1-0.1,0.3c-0.1,0.2-0.1,0.3-0.1,0.3v0.1c0,0.2,0,0.4,0.1,0.6c0.1,0.2,0.1,0.4,0.1,0.8
		c0,0.4,0,0.9-0.1,1.4s-0.1,0.9-0.1,1.4v0.1c0,0,0,0.1,0.1,0.2C288,59,288,59,288,59.1c0,0,0,0.1,0,0.3c0,0.2,0,0.4,0,0.5
		c0,0.3,0,0.6-0.1,0.8c0,0.2-0.2,0.5-0.4,0.8c0,1.3,0,2.3,0,3c0,0.7,0,1.3-0.1,1.6c0,0.4,0,0.6,0,0.7c0,0.1,0,0.1,0,0.2
		c0,0-0.1,0.1-0.1,0.2c0,0.1,0,0.2,0,0.3c0,0.2,0,0.5,0,0.7c0,0.3,0,0.4,0,0.5c0,0.1,0,0.2,0,0.4c0,0.2,0,0.4-0.1,0.6
		c0,0.2-0.1,0.4-0.1,0.6c0,0.2,0,0.3-0.1,0.4V72v0.5c0,0,0,0.1-0.1,0.2c0,0.1-0.1,0.2-0.1,0.2c-0.1,0.1-0.1,0.2-0.2,0.2
		c-0.1,0.1-0.1,0.1-0.1,0.1h-2.9c-0.1,0-0.2,0-0.3,0.1c-0.1,0.1-0.3,0.2-0.4,0.3c-0.1,0.1-0.2,0.2-0.3,0.4c-0.1,0.1-0.1,0.3-0.1,0.4
		c0,0.1,0.1,0.3,0.3,0.4c0.2,0.1,0.3,0.2,0.4,0.2h1.3h0.7c0.2,0,0.4,0,0.6,0c0.2,0,0.4-0.1,0.5-0.2l6,0.1c0.1,0,0.3,0,0.5,0.1
		c0.3,0,0.5,0,0.8,0c0.3,0,0.6,0,0.9,0c0.3,0,0.5,0,0.6,0c0.2,0,0.3,0,0.6-0.1c0.2,0,0.4-0.1,0.7-0.2c0.2-0.1,0.4-0.2,0.5-0.4
		c0.1-0.1,0.2-0.3,0.2-0.5c0-0.3-0.1-0.5-0.3-0.7s-0.5-0.4-0.9-0.5c-0.3-0.2-0.7-0.3-1.1-0.5c-0.4-0.2-0.8-0.4-1.1-0.6
		s-0.6-0.5-0.9-0.8c-0.2-0.3-0.3-0.7-0.3-1.2v-0.2c0,0,0-0.1,0.1-0.3c0.1-0.2,0.1-0.3,0.1-0.4V67v-1.6c-0.1-0.3-0.1-0.6-0.2-0.9
		c-0.1-0.3-0.2-0.6-0.2-0.9c0-0.3,0-0.5,0.1-0.8c0.1-0.3,0.1-0.5,0.1-0.8c0-0.3,0-0.6-0.1-0.9c-0.1-0.3-0.1-0.6-0.1-0.9
		c0-0.1,0.1-0.2,0.2-0.5c0.1-0.2,0.2-0.4,0.4-0.7c0.2-0.2,0.3-0.4,0.5-0.6c0.2-0.2,0.3-0.3,0.4-0.3h0c0.1,0,0.2,0.1,0.4,0.2
		c0.2,0.1,0.3,0.2,0.4,0.2c0,0,0.2,0.1,0.4,0.1c0.2,0,0.3,0.1,0.4,0.1c0.1,0,0.1,0.1,0.2,0.1c0.1,0.1,0.2,0.1,0.3,0.2
		c0.1,0.1,0.2,0.1,0.3,0.2c0.1,0.1,0.2,0.1,0.2,0.1c0,0,0.1,0.1,0.3,0.3c0.1,0.2,0.2,0.2,0.3,0.3c0,0,0.1,0.1,0.2,0.1
		c0.1,0.1,0.2,0.1,0.3,0.2c0.1,0.1,0.2,0.2,0.3,0.2c0.1,0.1,0.2,0.1,0.2,0.1c0.1,0.1,0.2,0.2,0.4,0.3c0.2,0.1,0.3,0.2,0.3,0.2
		c0,0,0,0.1,0.1,0.1c0,0.1,0.1,0.2,0.1,0.2c0,0.1,0.1,0.2,0.1,0.2c0,0.1,0.1,0.1,0.1,0.1c0.3,0.5,0.6,1,0.8,1.5
		c0.3,0.5,0.5,1,0.7,1.5c0,0,0.1,0.1,0.1,0.2c0,0.1,0.1,0.1,0.1,0.2c0.4,0.6,0.8,1.3,1.2,1.9c0.4,0.6,0.8,1.2,1.3,1.8
		c0,0.1,0.1,0.2,0.2,0.3c0.1,0.1,0.2,0.2,0.2,0.2c0,0.1,0,0.1,0.1,0.3c0.1,0.1,0.1,0.3,0.2,0.4c0.1,0.2,0.2,0.3,0.2,0.4
		c0.1,0.1,0.1,0.2,0.2,0.3c0,0,0.1,0.1,0.2,0.3s0.2,0.3,0.3,0.4c0.2,0.3,0.4,0.7,0.5,1c0.1,0.4,0.3,0.7,0.6,1
		c0.1,0.1,0.2,0.2,0.4,0.3c0.2,0.1,0.4,0.3,0.6,0.4c0.2,0.1,0.5,0.3,0.7,0.4c0.2,0.1,0.4,0.2,0.5,0.2c0.3,0,0.7,0,1-0.1
		c0.4-0.1,0.7-0.1,1.1-0.1c0.2,0,0.3,0,0.5,0.1c0.1,0.1,0.3,0.1,0.4,0.2c0.1,0.1,0.2,0.1,0.3,0.2c0.1,0.1,0.2,0.1,0.3,0.1h0.1
		c0.1,0,0.3,0,0.5-0.1c0.2,0,0.4,0,0.6-0.1c0.2,0,0.4,0,0.5,0c0.2,0,0.2,0,0.3,0c0.1,0,0.2-0.1,0.4-0.1c0.2,0,0.3-0.1,0.3-0.1
		c0.1,0,0.1-0.1,0.1-0.2c0-0.1,0-0.2,0-0.3v-0.4c0-0.5-0.1-1-0.4-1.3C314,72.4,313.7,72.1,313.3,72z M302,55.1c-0.3,0.4-0.6,0.7-1,1
		c-0.4,0.3-0.9,0.6-1.4,0.8c0,0-0.2,0.1-0.4,0.1c-0.2,0.1-0.4,0.1-0.5,0.1h-0.2h-0.2c-0.1,0-0.4,0-0.8,0c-0.4,0-0.8,0-1.2-0.1
		c-0.4,0-0.8,0-1.2-0.1c-0.4,0-0.7,0-0.8,0c-0.3-0.1-0.6-0.3-0.8-0.5c-0.2-0.3-0.3-0.5-0.3-0.8v-0.5c0-0.1,0-0.3,0.1-0.6
		c0-0.3,0-0.7,0.1-1.1c0-0.4,0-0.7,0.1-1c0-0.3,0-0.5,0-0.6c0-0.1,0-0.4,0-0.8c0-0.4,0-0.9-0.1-1.4c0-0.5,0-1-0.1-1.4
		c0-0.4,0-0.7-0.1-0.8v-1.2V45c0.1-0.2,0.2-0.3,0.2-0.6c0-0.2,0.1-0.4,0.1-0.6c0-0.1,0-0.2,0.1-0.4c0.1-0.2,0.1-0.3,0.1-0.4
		c0-0.1,0.1-0.2,0.1-0.3c0-0.1,0-0.2,0-0.2c0,0,0.1-0.1,0.2-0.2c0.1-0.1,0.2-0.2,0.3-0.3c0.1-0.1,0.2-0.2,0.3-0.3
		c0.1-0.1,0.1-0.1,0.2-0.2c0.1,0,0.2,0,0.4,0c0.2,0,0.4,0,0.6-0.1c0.2,0,0.4,0,0.6-0.1s0.3,0,0.4,0h0.4c0.3,0,0.5,0,0.8,0.1
		c0.2,0,0.4,0.1,0.6,0.2c0.2,0.1,0.4,0.2,0.5,0.3c0.2,0.1,0.4,0.2,0.6,0.3c0.1,0.1,0.3,0.2,0.4,0.2c0.1,0,0.3,0,0.4,0
		c0.2,0,0.3,0,0.5,0c0.2,0,0.3,0.1,0.4,0.2c0,0,0.1,0,0.1,0.1c0,0,0.1,0.1,0.1,0.1c0,0,0.1,0.1,0.1,0.2c0.1,0.1,0.2,0.2,0.2,0.3
		c0.1,0.1,0.1,0.2,0.2,0.3c0.1,0.1,0.1,0.2,0.1,0.2c0,0,0.1,0.1,0.1,0.1c0.1,0.1,0.1,0.2,0.2,0.2c0.1,0.1,0.1,0.2,0.2,0.2
		c0.1,0.1,0.1,0.1,0.1,0.1c0.2,0.4,0.4,0.8,0.6,1.2c0.2,0.4,0.4,0.8,0.6,1.3c0.2,0.3,0.3,0.7,0.3,1.1c0,0.4,0.1,0.8,0.1,1.1v0.4
		c0,0-0.1,0.2-0.1,0.4c0,0.2-0.1,0.3-0.1,0.4c0,0,0,0.1,0,0.3c0,0.1,0,0.3-0.1,0.4c0,0.2,0,0.3-0.1,0.4c0,0.1,0,0.2,0,0.2
		c0,0.1,0,0.1-0.1,0.3c-0.1,0.1-0.1,0.2-0.2,0.3c-0.3,0.5-0.6,0.9-0.9,1.3C302.6,54.3,302.3,54.7,302,55.1z"/>
	<path d="M352.3,47.1c0-0.2,0-0.3,0-0.4c0-0.1,0-0.2,0-0.2c-0.1-0.1-0.1-0.4-0.3-0.7c-0.1-0.3-0.3-0.7-0.4-1c-0.2-0.4-0.3-0.7-0.4-1
		c-0.1-0.3-0.2-0.5-0.3-0.7c0,0-0.1-0.1-0.1-0.3c0-0.1-0.1-0.2-0.1-0.3c0-0.1-0.1-0.1-0.2-0.3c-0.1-0.1-0.2-0.3-0.2-0.4
		c-0.1-0.2-0.1-0.3-0.2-0.4c-0.1-0.1-0.1-0.2-0.1-0.3c0,0,0-0.1-0.1-0.2c0-0.1,0-0.2,0-0.4c0-0.1,0-0.3,0-0.4c0-0.1,0-0.2,0-0.2
		c-0.1,0-0.1-0.1-0.2-0.3c-0.1-0.2-0.2-0.3-0.2-0.3c-0.1-0.2-0.3-0.4-0.4-0.7c-0.1-0.2-0.3-0.3-0.6-0.3h-0.3c-0.1,0-0.2,0-0.3,0
		c-0.1,0-0.2,0-0.3,0c-0.1,0-0.2,0-0.3,0c-0.1,0-0.1,0-0.2,0c0,0-0.1,0.1-0.2,0.2c-0.1,0.1-0.3,0.2-0.4,0.3
		c-0.2,0.1-0.3,0.2-0.4,0.3c-0.1,0.1-0.2,0.2-0.3,0.2c0,0-0.1,0.1-0.2,0.1c-0.1,0-0.2,0.1-0.2,0.1c-0.4,0.2-0.9,0.3-1.3,0.3
		c-0.5,0-1,0.1-1.5,0.1h-0.6c-0.4,0-0.7,0-1-0.1c-0.3-0.1-0.7-0.1-1-0.1c-0.9,0-1.8,0-2.6,0.1c-0.9,0.1-1.7,0.1-2.6,0.1h-0.2
		c0,0-0.1,0-0.2,0c-0.1,0-0.2,0-0.3-0.1c-0.1,0-0.2,0-0.3-0.1c-0.1,0-0.2,0-0.2,0c0,0-0.2,0-0.5,0c-0.3,0-0.7,0-1.1-0.1
		c-0.4,0-0.9-0.1-1.3-0.1c-0.5,0-0.8,0-1.1-0.1h-0.1c-0.3,0-0.6,0-0.9,0.1c-0.3,0.1-0.6,0.1-0.9,0.1c-0.7,0-1.4-0.1-2.1-0.2
		c-0.7-0.1-1.3-0.2-2-0.2c-0.3,0-0.7,0-0.9,0.1c-0.3,0.1-0.6,0.1-1,0.1c0,0-0.1,0-0.2,0c-0.1,0-0.2,0-0.3,0c-0.1,0-0.2,0-0.3,0
		c-0.1,0-0.2,0-0.2,0c-0.2-0.1-0.5-0.2-0.7-0.4c-0.2-0.2-0.4-0.3-0.7-0.5c-0.2-0.2-0.5-0.3-0.7-0.4c-0.2-0.1-0.5-0.2-0.8-0.2
		c-0.3,0-0.6,0.1-0.8,0.2s-0.4,0.3-0.5,0.4c-0.2,0.2-0.3,0.4-0.4,0.6c-0.1,0.2-0.3,0.4-0.4,0.6c-0.1,0.1-0.2,0.2-0.4,0.3
		c-0.1,0.1-0.2,0.2-0.2,0.4v0.9c0,0.1-0.1,0.2-0.1,0.4c-0.1,0.2-0.1,0.4-0.2,0.6c-0.1,0.2-0.2,0.4-0.2,0.6c-0.1,0.2-0.1,0.3-0.1,0.3
		c0,0-0.1,0.1-0.3,0.3c-0.2,0.1-0.3,0.2-0.3,0.3c0,0.2,0,0.4-0.1,0.5c0,0.1,0,0.3,0,0.4c0,0.1,0,0.2,0,0.3c0,0.1,0,0.2,0,0.4
		c0,0.2,0,0.4-0.1,0.6c0,0.2,0,0.4-0.1,0.6c0,0.2,0,0.3,0,0.4v0.1c0,0.3,0.1,0.5,0.3,0.6c0.2,0.1,0.4,0.2,0.6,0.2
		c0.3,0,0.6-0.1,0.9-0.2c0.3-0.1,0.5-0.3,0.7-0.5c0.2-0.2,0.4-0.5,0.6-0.7c0.2-0.2,0.4-0.5,0.6-0.7c0.1-0.2,0.2-0.3,0.3-0.4
		c0.1-0.1,0.1-0.2,0.2-0.3c0-0.1,0.1-0.2,0.1-0.3c0-0.1,0.1-0.3,0.2-0.5c0,0,0.1-0.1,0.1-0.2c0-0.1,0.1-0.1,0.1-0.1
		c0.3-0.3,0.6-0.6,0.9-0.9c0.3-0.2,0.7-0.5,1.1-0.7h1.1c1,0,2,0,3-0.1c1-0.1,2-0.1,3.1-0.1h1.5c0.1,0,0.1,0.1,0.3,0.1
		c0.1,0.1,0.3,0.1,0.4,0.2c0.1,0.1,0.3,0.1,0.4,0.2c0.1,0.1,0.2,0.1,0.2,0.1c0.2,0.1,0.4,0.3,0.5,0.6c0.1,0.3,0.2,0.5,0.2,0.7
		c0,0.1,0.1,0.2,0.1,0.3c0,0.1,0.1,0.2,0.1,0.2V49c-0.1,0.1-0.2,0.2-0.2,0.4c0,0.1,0,0.3,0,0.4c0,0.3,0,0.5,0.1,0.7
		c0.1,0.2,0.1,0.4,0.1,0.7c0,0.4-0.1,0.8-0.2,1.1c-0.1,0.4-0.2,0.7-0.2,1.1v1.6v0.5c0,0.1,0,0.3,0,0.7c0,0.4-0.1,0.8-0.1,1.2
		c0,0.4-0.1,0.8-0.1,1.2c0,0.4-0.1,0.6-0.1,0.7v0.4c0,0.2,0,0.4,0.1,0.6c0.1,0.2,0.1,0.4,0.1,0.6c0,0.2,0,0.4-0.1,0.5
		c-0.1,0.1-0.1,0.3-0.1,0.4V62c0,0,0,0.1,0.1,0.3c0.1,0.2,0.1,0.3,0.1,0.3v0.1v0.1c0,0.1,0,0.3-0.1,0.5c0,0.3-0.1,0.6-0.1,0.9
		c0,0.3-0.1,0.6-0.1,0.9c0,0.3-0.1,0.5-0.1,0.5c0,0.2,0,0.4-0.1,0.8c0,0.3,0,0.7,0,1.1c0,0.4,0,0.8,0,1.1c0,0.4,0,0.6,0.1,0.7
		c-0.1,0.2-0.2,0.5-0.3,0.7c-0.1,0.2-0.2,0.4-0.4,0.7c-0.2,0.2-0.3,0.4-0.5,0.5c-0.2,0.1-0.5,0.2-0.7,0.3c-0.1,0-0.3,0-0.5,0
		c-0.2,0-0.5,0-0.8,0.1c-0.3,0-0.5,0-0.8,0.1c-0.3,0-0.4,0-0.5,0c-0.3,0.1-0.5,0.2-0.8,0.5c-0.2,0.3-0.3,0.5-0.3,0.9
		c0,0.4,0.1,0.7,0.4,1c0.2,0.2,0.5,0.4,0.9,0.6c0.3,0.1,0.7,0.2,1.1,0.3c0.4,0,0.7,0.1,1,0.1c0.5,0,1,0,1.5-0.1
		c0.4-0.1,0.9-0.2,1.4-0.3h0.1h0.1c0.1,0,0.1,0.1,0.2,0.1c0.1,0,0.2,0.1,0.3,0.1c0.1,0,0.2,0.1,0.3,0.1c0.1,0,0.2,0.1,0.2,0.1h5.4
		c0.1,0,0.2,0,0.4,0.1c0.2,0.1,0.3,0.1,0.4,0.1c0.1,0,0.2,0,0.5,0.1c0.2,0,0.5,0,0.7,0.1c0.2,0,0.5,0,0.7,0.1c0.2,0,0.4,0,0.4,0
		c0.2,0,0.4-0.1,0.6-0.2c0.2-0.1,0.3-0.3,0.5-0.4c0.1-0.2,0.2-0.4,0.3-0.5c0.1-0.2,0.1-0.4,0.1-0.5c0-0.4-0.1-0.7-0.3-0.9
		c-0.2-0.2-0.5-0.4-0.8-0.6c-0.3-0.1-0.7-0.2-1.1-0.3c-0.4-0.1-0.7-0.1-1-0.1c-0.3,0-0.5,0-0.7,0.1c-0.2,0.1-0.5,0.1-0.7,0.1
		c-0.2,0-0.4-0.1-0.6-0.2c-0.2-0.1-0.4-0.3-0.6-0.5c-0.2-0.2-0.3-0.4-0.5-0.6c-0.1-0.2-0.2-0.4-0.3-0.5c-0.1-0.3-0.1-0.5-0.2-0.7
		c0-0.2,0-0.3,0-0.5v-0.5c0-1.5,0-2.9,0.1-4.3c0.1-1.4,0.2-2.9,0.3-4.3c0,0,0-0.1,0.1-0.2c0-0.1,0-0.2,0.1-0.3c0-0.1,0-0.2,0.1-0.3
		c0-0.1,0-0.2,0.1-0.2v-0.6v-0.3c0-0.2,0.1-0.3,0.1-0.3c0-0.1,0.1-0.2,0.1-0.3v-0.8c0-0.3,0-0.6-0.1-0.9c-0.1-0.3-0.1-0.6-0.1-0.9
		c0-0.2,0.1-0.3,0.2-0.5c0.1-0.2,0.2-0.3,0.2-0.5c0-0.5,0-1-0.1-1.5c-0.1-0.5-0.1-1-0.1-1.5c0-0.5,0-1.1,0.1-1.6
		c0.1-0.5,0.1-1,0.1-1.6v-0.4c0,0,0-0.1,0-0.3c0-0.2,0-0.4-0.1-0.6c0-0.2,0-0.4-0.1-0.6c0-0.2,0-0.3,0-0.3V45v-0.1
		c0-0.1,0-0.1,0-0.3c0-0.1,0-0.3,0.1-0.4c0-0.2,0-0.3,0.1-0.4c0-0.1,0-0.2,0.1-0.3c0,0,0-0.1,0.1-0.1c0,0,0.1,0,0.1-0.1
		c0.1,0,0.2-0.1,0.4-0.2c0.2-0.1,0.4-0.2,0.4-0.2h1.4h1.5c0,0,0.1,0,0.3,0.1c0.2,0.1,0.3,0.1,0.4,0.1h2.2h0.9
		c0.7,0.1,1.3,0.2,1.8,0.5c0.5,0.3,0.9,0.6,1.3,1c0.4,0.4,0.7,0.9,0.9,1.4c0.3,0.5,0.5,1.1,0.8,1.6c0.2,0.4,0.4,0.7,0.7,1
		c0.3,0.3,0.6,0.6,0.9,0.8c0,0,0.1,0,0.3,0c0.1,0,0.2,0,0.3,0c0.4,0,0.8-0.1,1.2-0.4c0.4-0.2,0.6-0.6,0.6-1v-0.2
		c0-0.1-0.1-0.1-0.1-0.3C352.3,47.4,352.3,47.3,352.3,47.1z"/>
	<path d="M371.9,39.8c-0.2-0.1-0.4-0.2-0.6-0.3c-0.2-0.1-0.4-0.2-0.6-0.3h-1.4c-0.8,0-1.5,0.1-2.1,0.2c-0.6,0.1-1.3,0.2-2,0.2
		c-0.1,0-0.3,0-0.5,0c-0.2,0-0.4-0.1-0.6-0.2c-0.1,0-0.3,0.1-0.5,0.1c-0.2,0-0.5,0-0.7,0c-0.3,0-0.5,0-0.8,0c-0.2,0-0.4,0-0.5-0.1
		c-0.1,0-0.2,0-0.5-0.1c-0.3,0-0.5-0.1-0.8-0.1c-0.3,0-0.6-0.1-0.8-0.1c-0.3,0-0.4-0.1-0.5-0.1h-0.3c-0.2,0-0.5,0-0.9,0
		c-0.4,0-0.8,0.1-1.2,0.2c-0.4,0.1-0.7,0.2-1,0.4c-0.3,0.2-0.4,0.5-0.4,0.8c0,0.4,0.1,0.8,0.3,1c0.2,0.2,0.5,0.4,0.9,0.5
		c0.2,0,0.4,0.1,0.8,0.2c0.4,0.1,0.8,0.1,1.2,0.2c0.4,0.1,0.8,0.1,1.2,0.2c0.4,0.1,0.7,0.1,0.8,0.1c0.3,0.1,0.5,0.3,0.7,0.6
		c0.2,0.3,0.4,0.6,0.4,0.9v0.2c0,0-0.1,0.1-0.1,0.3c-0.1,0.2-0.1,0.3-0.1,0.4c0,0.1,0.1,0.2,0.1,0.3c0,0.1,0.1,0.2,0.1,0.2
		c0,0.1,0,0.1,0.1,0.1v0.4c0,0.6,0,1.2-0.1,1.7c-0.1,0.6-0.1,1.2-0.1,1.8v1.8c0.1,0.1,0.1,0.3,0.2,0.4c0,0.1,0.1,0.3,0.1,0.4v0.3
		c0,0.3-0.1,0.6-0.2,0.8c-0.1,0.2-0.2,0.5-0.2,0.8v0.2c0,0.1,0.1,0.2,0.1,0.4c0,0.2,0.1,0.3,0.1,0.4c0,0.1,0,0.2,0,0.3
		c0,0.2,0,0.3,0,0.5c0,0.2,0,0.4,0,0.5c0,0.2,0,0.3,0,0.4c0,0.1,0,0.2,0,0.4c0,0.2,0,0.4,0,0.6c0,0.2,0,0.4,0,0.5c0,0.1,0,0.2,0,0.3
		c0,0,0,0.1,0,0.1c0,0.1,0,0.2-0.1,0.3s0,0.2-0.1,0.3c0,0.1,0,0.2,0,0.2v3.8c0,0,0,0.1,0,0.2c0,0.1,0,0.3-0.1,0.4
		c0,0.1,0,0.3-0.1,0.4c0,0.1,0,0.2,0,0.3v0.5c0,0.3,0,0.5,0.1,0.7c0.1,0.2,0.1,0.5,0.1,0.8c0,0.7,0,1.4-0.1,2.2
		c-0.1,0.7-0.1,1.5-0.1,2.2c-0.3,0.4-0.7,0.7-1.1,0.9c-0.4,0.2-0.9,0.3-1.3,0.4c-0.5,0.1-0.9,0.1-1.4,0.2c-0.5,0-1,0.1-1.4,0.1
		c-0.1,0-0.1,0-0.3,0.1c-0.1,0-0.2,0.1-0.3,0.1c-0.1,0.1-0.1,0.2-0.2,0.3c0,0.1,0,0.2,0,0.3c0,0.3,0.1,0.6,0.3,0.8
		c0.2,0.2,0.4,0.3,0.7,0.4c0.3,0.1,0.6,0.2,0.9,0.2c0.3,0,0.6,0.1,0.8,0.1h0.2c0.9,0,1.8,0,2.6-0.1c0.9-0.1,1.8-0.1,2.7-0.1
		c1.3,0,2.5,0.1,3.8,0.2c1.3,0.2,2.5,0.3,3.8,0.4h0.1h0.1c0,0,0.1,0,0.2-0.1c0.1-0.1,0.2-0.1,0.2-0.1c0.3-0.3,0.5-0.5,0.7-0.7
		c0.1-0.2,0.2-0.5,0.2-0.9v-0.2c0-0.2,0-0.3-0.1-0.4c0-0.1-0.1-0.2-0.3-0.3c-0.1,0-0.3,0-0.5,0c-0.2,0-0.5,0-0.8-0.1
		c-0.3,0-0.5,0-0.7-0.1c-0.2,0-0.4,0-0.5-0.1c0,0-0.1,0-0.2-0.1c-0.1,0-0.2-0.1-0.3-0.1c-0.1,0-0.2-0.1-0.3-0.1
		c-0.1,0-0.2-0.1-0.2-0.1c-0.2-0.1-0.4-0.1-0.6-0.1c-0.2,0-0.4-0.1-0.5-0.2c-0.2-0.1-0.3-0.2-0.4-0.3c-0.1-0.1-0.2-0.3-0.3-0.6
		c0-0.1,0-0.2-0.1-0.3c0-0.2,0-0.3-0.1-0.5c0-0.2,0-0.3-0.1-0.5c0-0.1,0-0.2,0-0.3c0,0,0-0.1,0-0.1c0-0.1,0-0.2,0.1-0.2
		c0-0.1,0-0.2,0.1-0.2c0-0.1,0-0.1,0-0.1c0-0.1,0.1-0.2,0.1-0.4c0-0.2,0.1-0.4,0.1-0.5v-2.2c0-0.8,0-1.6-0.1-2.4
		c-0.1-0.8-0.1-1.6-0.1-2.5c0-0.6,0.1-1.3,0.2-1.9c0.1-0.6,0.2-1.3,0.2-1.9v-0.9c0,0,0-0.1-0.1-0.2c0-0.1-0.1-0.2-0.1-0.3
		c-0.1-0.1-0.1-0.2-0.1-0.3c0-0.1-0.1-0.2-0.1-0.2v-0.1c0-0.6,0.1-1.1,0.3-1.7c0.2-0.5,0.3-1.1,0.3-1.6c0-0.5,0-0.9,0-1.4
		c0-0.4-0.1-0.8-0.1-1.3c0,0,0-0.1-0.1-0.3c0-0.1-0.1-0.1-0.1-0.2v-0.4v-1c0,0-0.1-0.1-0.1-0.3c0-0.2-0.1-0.3-0.1-0.3v-0.4
		c0-0.2,0-0.3,0.1-0.5c0.1-0.1,0.1-0.3,0.2-0.4c0.1-0.2,0.1-0.3,0.2-0.5c0.1-0.2,0.1-0.3,0.1-0.5v-0.4c0-0.2-0.1-0.3-0.1-0.4
		c0-0.1,0-0.2,0-0.3c0-0.1,0-0.2,0-0.2c0-0.1,0-0.1,0-0.2c0-0.1,0.1-0.1,0.1-0.1c0.4,0.1,0.8,0.1,1.2,0.2c0.4,0,0.8,0.1,1.2,0.1
		c0.4,0,0.8,0,1.2-0.1c0.4,0,0.7-0.1,1.1-0.2c0.2,0,0.3-0.1,0.4-0.2c0.1-0.1,0.3-0.2,0.3-0.4c0.1-0.2,0.2-0.3,0.2-0.5
		c0.1-0.2,0.1-0.3,0.1-0.4c0-0.3-0.1-0.5-0.2-0.7C372.2,40,372.1,39.9,371.9,39.8z"/>
	<path d="M376.1,29.2c0-0.1-0.1-0.3-0.1-0.4c0-0.2-0.1-0.3-0.1-0.4c0-0.1-0.1-0.2-0.1-0.3c0,0-0.1,0-0.2-0.1c-0.1,0-0.1,0-0.2-0.1
		c-0.6-0.2-1.1-0.3-1.6-0.3c-0.4,0-0.7,0.1-1,0.2c-0.3,0.1-0.6,0.2-0.9,0.4c-0.3,0.2-0.6,0.4-0.9,0.6c-0.3,0.2-0.6,0.5-1,0.7
		c-0.6,0.4-1.1,0.7-1.7,1.1c-0.6,0.3-1.2,0.7-1.7,1.1c-0.6,0.4-1.1,0.9-1.5,1.4c-0.5,0.5-0.8,1.1-1,1.8c0,0.1-0.1,0.1-0.1,0.2
		c0,0.1,0,0.1,0,0.2c0,0.4,0.1,0.7,0.4,0.9c0.3,0.3,0.6,0.4,0.9,0.5c0,0,0.1,0,0.1,0c0,0,0.1,0,0.1,0.1c0.1-0.1,0.3-0.1,0.5-0.2
		c0.2-0.1,0.5-0.2,0.8-0.4c0.3-0.1,0.5-0.3,0.8-0.4c0.2-0.1,0.4-0.2,0.5-0.3c0,0,0.1-0.1,0.2-0.2c0.1-0.1,0.2-0.2,0.3-0.3
		c0.1-0.1,0.2-0.2,0.3-0.3c0.1-0.1,0.2-0.2,0.2-0.2c0.3-0.2,0.6-0.4,0.9-0.5c0.3-0.2,0.6-0.3,0.9-0.5c0.3-0.2,0.6-0.4,0.9-0.5
		c0.3-0.2,0.6-0.4,0.9-0.7c0,0,0.1-0.1,0.3-0.3c0.2-0.1,0.3-0.2,0.4-0.3c0.2-0.1,0.3-0.2,0.5-0.2c0.2-0.1,0.3-0.1,0.5-0.2
		c0.2-0.1,0.3-0.1,0.5-0.2c0.2-0.1,0.3-0.2,0.5-0.3c0.2-0.2,0.3-0.3,0.3-0.4c0.1-0.1,0.1-0.3,0.2-0.5c0,0,0-0.1,0-0.1
		c0,0,0-0.1,0.1-0.1c0-0.1,0-0.1,0.1-0.1C376.2,29.5,376.2,29.4,376.1,29.2z"/>
	<path d="M415.2,38.7c-0.1,0-0.2-0.1-0.4-0.1c-0.2,0-0.3,0-0.5-0.1c0,0-0.1-0.1-0.3-0.1c-0.2,0-0.2,0-0.2-0.1
		c-0.8,0-1.6,0.1-2.4,0.2c-0.8,0.1-1.6,0.2-2.4,0.2l-5.6-0.4h-0.5c-0.1,0-0.2,0-0.3,0c-0.1,0-0.2,0-0.2,0c-0.1,0-0.1,0-0.3,0.1
		c-0.1,0-0.2,0.1-0.4,0.2c-0.1,0.1-0.2,0.2-0.3,0.3c-0.1,0.1-0.2,0.3-0.2,0.5c0,0.5,0.1,0.8,0.3,1c0.2,0.2,0.5,0.5,0.8,0.7
		c0,0,0.1,0,0.1,0.1c0.1,0,0.1,0.1,0.2,0.1c0.1,0.1,0.2,0.1,0.2,0.1c0.1,0,0.1,0.1,0.1,0.1c0,0,0.1,0,0.2,0.1c0.1,0,0.2,0.1,0.3,0.1
		c0.1,0,0.2,0.1,0.3,0.1s0.2,0,0.2,0c0.5,0.1,1,0.4,1.3,0.9c0.4,0.5,0.7,1,0.9,1.5c0.1,0,0.1,0.1,0.1,0.2c0,0.1,0.1,0.1,0.1,0.2v4.4
		c0,0,0.1,0.1,0.1,0.3c0,0.1,0.1,0.2,0.1,0.3c0,0.1,0,0.2,0.1,0.3c0,0.2,0,0.4,0.1,0.6c0,0.2,0,0.4,0.1,0.6c0,0.2,0,0.3,0,0.4
		c0,0.1,0,0.4,0.1,0.7c0,0.4,0,0.7,0.1,1.2c0,0.4,0,0.8,0.1,1.2c0,0.4,0,0.6,0.1,0.8c0,0,0,0.2,0,0.4c0,0.2,0,0.5,0,0.7
		c0,0.2,0,0.3,0.1,0.4c0,0.1,0,0.2,0.1,0.4c0,0.2,0.1,0.3,0.1,0.3v0.8c0,0.7-0.1,1.4-0.2,2.1c-0.1,0.7-0.3,1.4-0.5,2
		c0,0.2-0.1,0.3-0.3,0.4c-0.1,0-0.3,0.1-0.4,0.1c-0.3,0-0.5,0-0.6-0.1c-0.1-0.1-0.3-0.2-0.4-0.3c-0.1-0.1-0.2-0.3-0.3-0.4
		c-0.1-0.2-0.2-0.3-0.4-0.5c-0.1-0.1-0.2-0.2-0.4-0.4c-0.2-0.2-0.4-0.4-0.6-0.7c-0.2-0.2-0.4-0.4-0.6-0.6c-0.2-0.2-0.3-0.3-0.4-0.4
		c0-0.3-0.1-0.5-0.2-0.6c-0.1-0.2-0.3-0.3-0.5-0.4c-0.2-0.1-0.4-0.2-0.6-0.3c-0.2-0.1-0.4-0.2-0.6-0.4c-0.2-0.2-0.3-0.4-0.5-0.7
		c-0.2-0.3-0.3-0.5-0.4-0.8c-0.8-0.7-1.5-1.4-2.1-2.1c-0.7-0.8-1.2-1.6-1.7-2.5c-0.4-0.2-0.8-0.5-1.2-0.9c-0.4-0.4-0.8-0.9-1.2-1.5
		c-0.4-0.5-0.8-1.1-1.2-1.6c-0.4-0.5-0.7-1-1-1.3c-0.3-0.4-0.7-0.7-1.1-1c-0.4-0.3-0.7-0.6-1-1c-0.2-0.3-0.4-0.6-0.5-0.9
		c-0.1-0.3-0.3-0.6-0.5-0.9c0,0-0.1-0.1-0.2-0.2c-0.1-0.1-0.2-0.3-0.4-0.4c-0.1-0.1-0.3-0.3-0.4-0.4c-0.1-0.1-0.2-0.2-0.2-0.2
		c-0.2-0.3-0.5-0.5-0.7-0.9c-0.2-0.3-0.5-0.6-0.7-0.9c-0.3-0.3-0.5-0.5-0.9-0.7c-0.3-0.2-0.7-0.3-1.1-0.3c-0.2,0-0.3,0-0.5,0
		c-0.1,0-0.3,0-0.5,0.1h-3.9c-0.1,0-0.3,0-0.5,0.1c-0.2,0.1-0.3,0.1-0.4,0.1c-0.1,0-0.1,0.1-0.2,0.2c-0.1,0.1-0.2,0.2-0.3,0.3
		c-0.1,0.1-0.2,0.2-0.3,0.3c-0.1,0.1-0.1,0.2-0.1,0.2c0,0,0,0.1,0,0.1c0,0.1,0,0.1,0,0.2c0,0.1,0.1,0.3,0.2,0.5
		c0.2,0.2,0.3,0.5,0.5,0.7c0.2,0.2,0.4,0.5,0.7,0.7c0.2,0.2,0.4,0.3,0.6,0.4c0,0,0.1,0,0.2,0c0.1,0,0.2,0,0.3,0.1
		c0.1,0,0.2,0,0.3,0.1c0.1,0,0.1,0,0.2,0c0,0,0.1,0.1,0.1,0.1c0.1,0.1,0.2,0.1,0.2,0.2c0.1,0.1,0.1,0.1,0.2,0.2
		c0.1,0.1,0.1,0.1,0.1,0.1c0.1,0,0.1,0.1,0.3,0.1c0.1,0,0.3,0.1,0.4,0.1c0.2,0,0.3,0.1,0.4,0.1c0.1,0,0.2,0,0.3,0.1
		c0.4,0.1,0.7,0.3,1,0.6c0.3,0.3,0.5,0.5,0.7,0.9c0.2,0.3,0.4,0.7,0.5,1c0.1,0.4,0.2,0.7,0.2,1.1c0,0.1,0,0.2-0.1,0.4
		c-0.1,0.2-0.1,0.3-0.1,0.3c0,0.2,0,0.5-0.1,0.9c0,0.4-0.1,0.8-0.1,1.3c0,0.5-0.1,0.9-0.1,1.3c0,0.4-0.1,0.7-0.1,0.8v1.8
		c0,0.1,0,0.2-0.1,0.3c-0.1,0.2-0.1,0.2-0.1,0.3c0,0.1,0,0.2-0.1,0.5c0,0.3,0,0.6-0.1,0.9c0,0.3,0,0.7,0,1c0,0.3,0,0.5,0,0.6
		c0,0,0,0.1,0,0.1c0,0.1,0,0.2-0.1,0.3c0,0.1,0,0.2-0.1,0.3c0,0.1,0,0.2-0.1,0.2v0.4c0,0.2,0,0.3,0,0.4c0,0.1,0,0.2,0.1,0.4
		c0,0.1,0.1,0.2,0.1,0.4c0,0.1,0,0.3,0,0.5v0.9c0,0,0,0.1,0,0.2c0,0.1-0.1,0.2-0.1,0.3c0,0.1,0,0.2-0.1,0.3c0,0.1,0,0.2,0,0.2v1.3
		v0.5c0,0,0,0.1-0.1,0.2c0,0.1-0.1,0.2-0.1,0.2v5.2c-0.1,0.2-0.2,0.3-0.2,0.4c-0.1,0.1-0.1,0.2-0.2,0.3c-0.1,0.1-0.1,0.2-0.1,0.2
		c-0.2,0.3-0.5,0.5-0.9,0.6c-0.4,0.1-0.8,0.2-1.2,0.2c-0.4,0.1-0.8,0.1-1.2,0.3c-0.4,0.1-0.7,0.4-1,0.7c-0.1,0.2-0.2,0.4-0.3,0.5
		c0,0.1-0.1,0.3-0.1,0.4c0,0.2,0,0.4,0.1,0.4c0.1,0.1,0.1,0.2,0.3,0.2c0.1,0,0.3,0.1,0.4,0.1c0.1,0,0.3,0.1,0.5,0.1
		c0.1,0,0.2,0,0.5,0.1c0.2,0,0.5,0,0.8,0c0.3,0,0.5,0,0.8,0c0.2,0,0.4,0,0.5,0.1h0.4c0.6,0,1.2,0,1.8-0.1c0.6-0.1,1.3-0.1,1.9-0.1
		c0.6,0,1.2,0,1.7,0.1c0.6,0.1,1.1,0.1,1.7,0.1h0.6c0.2,0,0.3,0,0.4,0s0.2,0,0.4,0c0.1,0,0.3-0.1,0.4-0.1c0.1-0.1,0.3-0.1,0.5-0.2
		c0,0,0.1-0.1,0.2-0.1c0.1,0,0.2,0,0.3,0c0.1,0,0.2,0,0.3,0c0.1,0,0.2,0,0.2-0.1v-0.5c0-0.2,0-0.3,0-0.4c0-0.1-0.1-0.2-0.2-0.3
		c-0.3-0.3-0.5-0.6-0.7-0.8c-0.2-0.2-0.4-0.4-0.7-0.5c-0.5-0.2-1-0.3-1.6-0.4c-0.5-0.1-1-0.2-1.5-0.3c-0.5-0.2-0.8-0.4-1.1-0.8
		c-0.3-0.3-0.4-0.9-0.4-1.7c0-0.2,0-0.4,0.1-0.6c0.1-0.2,0.1-0.4,0.1-0.6c0-0.3,0-0.6-0.1-0.9c-0.1-0.3-0.1-0.5-0.1-0.8
		c0-0.4,0-0.8,0.1-1.2c0.1-0.4,0.1-0.8,0.1-1.2c0-0.2,0-0.4,0-0.7c0-0.3,0-0.4,0-0.5c0,0,0-0.1,0-0.2c0-0.1,0-0.2-0.1-0.3
		c0-0.1-0.1-0.2-0.1-0.4c0-0.1,0-0.2,0-0.5c0-0.2,0-0.5,0-0.8c0-0.3,0-0.6,0-0.9c0-0.3,0-0.7,0-1c0-0.3,0-0.5,0-0.8
		c0-0.2,0-0.4-0.1-0.4c0,0,0-0.1-0.1-0.3c0-0.2-0.1-0.3-0.1-0.5c0-0.2-0.1-0.3-0.1-0.5c0-0.2-0.1-0.3-0.1-0.3c0-0.2,0-0.4,0-0.5
		c0-0.1,0-0.3,0-0.4c0-0.1,0-0.3,0-0.3c0-0.1,0-0.2,0-0.3s0-0.3,0-0.4c0-0.1,0-0.3,0-0.6c0-0.1,0-0.3,0.1-0.6
		c0.1-0.2,0.1-0.5,0.2-0.7c0.1-0.2,0.2-0.4,0.4-0.6c0.1-0.2,0.3-0.3,0.5-0.3c0.2,0,0.4,0.1,0.5,0.2c0.1,0.1,0.3,0.2,0.4,0.4
		c0.1,0,0.1,0.1,0.3,0.3c0.1,0.1,0.3,0.3,0.4,0.4c0.2,0.2,0.3,0.3,0.4,0.4c0.1,0.1,0.2,0.2,0.3,0.2c0,0,0,0.1,0.1,0.2
		s0.2,0.2,0.3,0.2c0.1,0.1,0.2,0.1,0.3,0.2c0.1,0.1,0.2,0.1,0.2,0.1c0,0,0.1,0.1,0.2,0.2c0.1,0.1,0.1,0.2,0.1,0.2
		c0,0,0.1,0.1,0.1,0.2c0.1,0.1,0.1,0.2,0.2,0.3c0.1,0.1,0.1,0.2,0.2,0.3c0,0.1,0.1,0.1,0.1,0.2c0.1,0.1,0.2,0.2,0.3,0.3
		c0.1,0.1,0.2,0.2,0.4,0.2c0.1,0.1,0.3,0.2,0.4,0.2c0.1,0.1,0.2,0.2,0.3,0.3c0,0,0.1,0.1,0.2,0.3c0.1,0.1,0.2,0.2,0.2,0.3
		c0.1,0,0.1,0.1,0.3,0.3c0.1,0.1,0.3,0.3,0.4,0.4c0.2,0.2,0.3,0.3,0.4,0.4c0.1,0.1,0.2,0.2,0.2,0.3c0.1,0.1,0.2,0.3,0.3,0.4
		c0.1,0.2,0.1,0.3,0.2,0.5c0.1,0.2,0.1,0.3,0.2,0.5c0.1,0.1,0.2,0.3,0.3,0.4c0,0,0.1,0.1,0.2,0.1c0.1,0.1,0.2,0.2,0.3,0.2
		c0.1,0.1,0.2,0.1,0.3,0.2c0.1,0.1,0.1,0.1,0.1,0.1c0,0,0,0.1,0.1,0.1c0,0,0,0.1,0.1,0.1c0,0,0.1,0.1,0.1,0.2
		c0.1,0.1,0.2,0.3,0.2,0.4c0.1,0.1,0.1,0.3,0.2,0.4c0.1,0.1,0.1,0.2,0.1,0.2c0,0,0.1,0.1,0.3,0.2c0.1,0.1,0.3,0.2,0.4,0.4
		c0.2,0.1,0.3,0.3,0.5,0.4c0.1,0.1,0.2,0.2,0.3,0.2c0.1,0.1,0.1,0.2,0.1,0.2c0.6,0.7,1.2,1.5,1.7,2.2c0.5,0.8,1.1,1.5,1.7,2.2
		c0.1,0.1,0.2,0.2,0.4,0.4c0.2,0.2,0.4,0.5,0.7,0.7c0.2,0.3,0.5,0.5,0.7,0.7c0.2,0.2,0.3,0.4,0.4,0.4c0.3,0.4,0.6,0.7,0.9,1.1
		c0.3,0.4,0.6,0.8,0.9,1.1c0.3,0.4,0.7,0.7,1,1c0.4,0.3,0.8,0.5,1.3,0.7c0,0,0,0,0.1,0c0,0,0.1,0,0.1,0c0.3,0,0.6-0.1,0.9-0.4
		c0.2-0.2,0.5-0.5,0.7-0.7c0-0.1-0.1-0.2-0.1-0.5c0-0.2,0-0.5,0-0.7c0-0.3,0-0.5,0-0.7c0-0.2,0-0.4,0.1-0.4c0-0.1,0-0.2,0.1-0.4
		c0.1-0.2,0.1-0.3,0.1-0.4v-0.1c0-0.7-0.1-1.5-0.2-2.2c-0.1-0.7-0.2-1.4-0.2-2.2V64c0-0.1,0-0.1,0.1-0.3c0-0.1,0-0.3,0.1-0.5
		c0-0.2,0-0.3,0.1-0.5c0-0.2,0-0.3,0.1-0.3c0-0.1,0-0.2,0.1-0.4c0.1-0.2,0.1-0.3,0.1-0.3v-2.5c0,0,0-0.1,0-0.2c0-0.1,0-0.2,0-0.3
		c0-0.1,0-0.2,0-0.3c0-0.1,0-0.1,0-0.2v-3c0.1-0.1,0.1-0.3,0.2-0.4c0-0.2,0.1-0.3,0.1-0.5v-0.5c0-0.4,0-0.8-0.1-1.1
		c-0.1-0.3-0.1-0.7-0.1-1.1v-0.8c0,0,0-0.1,0.1-0.3c0.1-0.1,0.1-0.2,0.1-0.3v-0.6V48c0-0.1,0-0.4,0.1-0.7c0-0.3,0-0.7,0.1-1
		c0-0.4,0-0.7,0.1-1c0-0.3,0-0.5,0-0.7c0-0.2,0.1-0.5,0.2-0.8c0.1-0.3,0.2-0.5,0.3-0.7c0.1-0.1,0.2-0.2,0.3-0.3
		c0.1-0.1,0.3-0.3,0.4-0.4c0.2-0.2,0.4-0.3,0.6-0.4c0.2-0.1,0.4-0.2,0.5-0.3c0.1,0,0.2-0.1,0.4-0.2c0.2-0.1,0.3-0.1,0.4-0.1
		c0.2-0.1,0.4-0.1,0.7-0.2c0.3-0.1,0.5-0.2,0.7-0.3c0.2-0.1,0.4-0.3,0.5-0.5c0.1-0.2,0.2-0.4,0.2-0.7c0-0.3,0-0.6-0.1-0.7
		C415.3,38.9,415.3,38.8,415.2,38.7z"/>
	<path d="M452.2,67.9c-0.1-0.3-0.1-0.4-0.1-0.4v-0.9c0-0.1-0.1-0.2-0.2-0.3c-0.1-0.1-0.3-0.2-0.3-0.2l-0.2,0.1c0,0-0.1,0-0.1,0.1
		c-0.1,0-0.1,0-0.1,0.1c-0.2,0.1-0.2,0.1-0.3,0.2c0,0-0.1,0-0.1,0c-0.4,0.2-0.7,0.4-0.9,0.6c-0.2,0.2-0.5,0.4-0.6,0.7
		c-0.2,0.3-0.3,0.5-0.5,0.8c-0.1,0.3-0.3,0.6-0.4,1c0,0-0.1,0.2-0.2,0.4c-0.1,0.1-0.1,0.2-0.1,0.2c0,0,0,0-0.1,0.1
		c0,0-0.1,0.1-0.1,0.1c-0.1,0.1-0.2,0.1-0.3,0.2c-0.1,0.1-0.2,0.2-0.3,0.3c-0.1,0.1-0.2,0.2-0.3,0.2c-0.1,0.1-0.1,0.1-0.1,0.1
		c0,0-0.1,0-0.1,0.1c-0.1,0.1-0.2,0.1-0.3,0.2c-0.2,0.1-0.3,0.1-0.5,0.1c-0.1,0-0.2,0.1-0.4,0.1c-0.1,0-0.3,0.1-0.5,0.2h0.1
		c0,0,0,0-0.1,0c0,0-0.1,0.1-0.3,0.2c-0.2,0.1-0.4,0.2-0.5,0.3c-0.2,0.1-0.4,0.1-0.8,0.1c0,0,0,0-0.1,0c0,0,0,0-0.1,0c0,0,0,0-0.1,0
		c0,0-0.1,0-0.2,0c-0.1,0-0.3,0-0.4,0c-0.2,0-0.3,0-0.5,0c-0.2,0-0.3,0-0.4,0c-0.1,0-0.2,0-0.3,0c-0.1,0-0.3,0-0.4,0
		c-0.2,0-0.3,0-0.5,0c-0.2,0-0.3,0-0.4,0c0-0.1-0.2-0.1-0.4-0.2c-0.2-0.1-0.4-0.1-0.4-0.1c-0.1,0-0.1,0.1-0.2,0.1
		c0,0-0.1,0.1-0.2,0.1c0,0-0.1,0.1-0.1,0.1c0,0-0.1,0-0.1,0c0,0-0.1,0-0.1,0c-0.1,0-0.3,0.1-0.6,0.1c-0.3,0-0.6,0.1-0.9,0.1
		c-0.1,0-0.2,0-0.3,0c-0.1,0-0.2,0-0.2,0c-0.8,0-1.4,0-1.8,0c-0.4,0-0.6,0.1-0.7,0.1h-0.9c-0.3,0-0.6,0-0.9,0
		c-0.3,0-0.6-0.1-0.9-0.2c-0.3-0.1-0.5-0.2-0.7-0.4c-0.2-0.2-0.3-0.4-0.3-0.8v-2.6c0-0.2,0-0.4,0-0.8c0-0.4,0-0.8,0-1.2
		c0-0.4,0-0.8,0-1.2c0-0.4,0-0.6,0-0.7c0-0.3-0.1-0.6-0.1-0.8c-0.1-0.3-0.1-0.5-0.2-0.8c0,0-0.1-0.1-0.2-0.1V63c0,0,0-0.1,0-0.1
		c0,0,0-0.1-0.1-0.1c0-0.1,0-0.2,0-0.3c0-0.1,0-0.3,0-0.4c0-0.1,0-0.3,0-0.4c0-0.1,0-0.2-0.1-0.3c0-0.1,0-0.2-0.1-0.3
		c0-0.1-0.1-0.2-0.1-0.3c0-0.1,0-0.2,0-0.2c0-0.1,0-0.2,0.1-0.3c0.1-0.1,0.1-0.3,0.1-0.4c0-0.1,0.1-0.1,0.1-0.2c0,0,0-0.1,0-0.2
		c0-0.1,0-0.2,0-0.3c0-0.1,0-0.3,0-0.4h0.7c0.1,0,0.1,0,0.2-0.1c0.1,0,0.1-0.1,0.1-0.1c0,0,0.1-0.1,0.1-0.1c0.1-0.1,0.2-0.1,0.3-0.2
		c0.1-0.1,0.2-0.1,0.4-0.1h0.4c0.1,0,0.2,0,0.4,0.1c0.1,0,0.2,0.1,0.3,0.1c0,0,0.1,0.1,0.2,0.1c0.1,0,0.3,0,0.5,0c0.2,0,0.4,0,0.7,0
		c0.2,0,0.5,0,0.8,0c0.2,0,0.4,0.1,0.8,0.1c0.3,0,0.6,0,0.9,0.1l1,0.1c0.4,0.1,0.7,0.2,1,0.4c0.2,0.2,0.5,0.5,0.6,0.9
		c0.2,0.3,0.3,0.7,0.4,1.1c0.1,0.4,0.2,0.7,0.2,1.1c0,0,0,0.1,0,0.2c0,0.1,0,0.1,0,0.2c0,0.2,0,0.5,0.1,0.7c0,0.3,0.1,0.5,0.2,0.7
		c0.1,0.2,0.2,0.4,0.4,0.5c0.2,0.1,0.4,0.2,0.7,0.2c0.3,0,0.5-0.1,0.7-0.2c0.2-0.1,0.3-0.3,0.4-0.5c0.1-0.2,0.1-0.4,0.2-0.7
		c0-0.3,0.1-0.5,0.1-0.7c0-0.2,0-0.4,0.1-0.6c0-0.1,0-0.3,0.1-0.6c0-0.3,0.1-0.6,0.2-1c0.1-0.4,0.1-0.8,0.2-1.1
		c0.1-0.3,0.1-0.6,0.1-0.7c0-0.1,0-0.2,0-0.3c0-0.2,0-0.4-0.1-0.6c0-0.2-0.1-0.4-0.1-0.6c0-0.2,0-0.3,0-0.3v-6
		c-0.1-0.2-0.2-0.4-0.4-0.6c-0.2-0.2-0.5-0.3-0.8-0.3c-0.1,0-0.1,0-0.2,0c-0.1,0-0.2,0.1-0.3,0.1c-0.1,0-0.2,0.1-0.3,0.1
		c-0.1,0-0.1,0.1-0.1,0.1c-0.2,0.1-0.3,0.2-0.4,0.4c0,0.2-0.1,0.4-0.1,0.5v0.2c0-0.1,0,0-0.1,0.1c-0.1,0.1-0.1,0.3-0.2,0.5
		c0,0-0.1,0.1-0.1,0.3c0,0.2,0,0.4-0.1,0.6c0,0.2,0,0.4,0,0.6c0,0.2,0,0.3,0,0.4c0,0.2-0.1,0.4-0.2,0.6c-0.1,0.2-0.2,0.4-0.3,0.6
		c-0.1,0.2-0.2,0.3-0.4,0.4c-0.2,0.1-0.3,0.2-0.5,0.2c-0.1,0-0.2,0-0.3,0c-0.1,0-0.2,0-0.3-0.1c-0.1,0-0.1,0-0.2,0
		c-0.1,0-0.2,0-0.2-0.1c-0.1,0-0.2,0-0.3-0.1c-0.2,0-0.4,0-0.5,0.1c-0.1,0-0.2,0.1-0.4,0.1c-0.1,0-0.3,0.1-0.4,0.1
		c-0.1,0-0.3,0-0.4,0c-0.2,0-0.3,0-0.4,0c-0.1,0-0.2-0.1-0.4-0.2c0,0-0.1,0-0.1,0c0,0,0,0-0.1,0c-0.1,0-0.3,0.1-0.6,0.1
		c-0.3,0-0.5,0-0.8,0c-0.3,0-0.6,0-0.8,0c-0.2,0-0.4,0-0.5-0.1c-0.2,0-0.4,0-0.6,0c-0.3,0-0.4,0-0.4-0.1l-0.1-0.2v-0.9l0.1-1.3
		c0-0.2,0.1-0.5,0.1-0.7c0-0.2,0-0.4,0-0.6c0-0.4,0-0.7-0.1-1.1c-0.1-0.3-0.1-0.6-0.2-0.9c-0.1-0.2-0.1-0.3-0.1-0.5
		c0-0.2-0.1-0.3-0.1-0.5c0-0.2,0-0.4,0.1-0.6c0-0.2,0.1-0.3,0.1-0.5c0.1-0.2,0.1-0.5,0.1-0.8c0-0.2,0.1-0.4,0.1-0.9s0-0.9,0-1.3
		c0-0.4,0-0.9,0-1.3s0-0.7-0.1-0.9c0-0.1,0-0.1,0.1-0.2c0.1-0.1,0.2-0.3,0.3-0.5c0.1-0.2,0.3-0.3,0.4-0.3c0.2,0,0.3,0,0.5,0.1
		c0.2,0.1,0.3,0.1,0.4,0.2c0.1,0,0.3,0.1,0.4,0.1c0.1,0,0.3,0.1,0.4,0.1c0.3,0,0.6,0,0.9,0.1c0.3,0,0.6,0,0.9,0
		c0.6,0,1.2,0.1,1.8,0.1c0.6,0,1.1,0.1,1.6,0.3h4.4c0.2,0,0.4,0.1,0.7,0.3c0.2,0.2,0.4,0.4,0.4,0.5c0.1,0,0.1,0.2,0.2,0.4
		c0.1,0.2,0.2,0.5,0.3,0.7c0.1,0.2,0.2,0.5,0.3,0.7c0.1,0.2,0.1,0.3,0.2,0.4c0.1,0.2,0.3,0.6,0.6,1c0.3,0.4,0.6,0.9,0.9,1.3
		s0.7,0.8,1,1.1c0.3,0.3,0.7,0.5,1,0.5c0.1,0,0.1,0,0.3,0c0.1,0,0.2,0,0.3,0c0.1-0.1,0.2-0.3,0.2-0.4c0-0.2,0.1-0.3,0.1-0.5v-0.7
		c0,0,0-0.2,0.1-0.4c0-0.3,0.1-0.5,0.1-0.8c0-0.1,0-0.3,0.1-0.4c0-0.1,0-0.3,0.1-0.6c0-0.2,0-0.5,0-0.9c0-0.3,0-0.8,0-1.3
		c0-0.3,0-0.6,0-0.9c0-0.3-0.1-0.6-0.2-1c0-0.2-0.1-0.5-0.3-0.8s-0.4-0.5-0.7-0.5c0,0-0.1,0-0.3-0.1c-0.2,0-0.3,0-0.5-0.1
		c-0.2,0-0.4,0-0.5-0.1c-0.2,0-0.3,0-0.3,0c0,0-0.2-0.1-0.5-0.1c-0.4-0.1-0.8-0.1-1.2-0.1c-0.2,0-0.4,0-0.7,0s-0.4,0.1-0.7,0.1
		c-0.4,0.1-0.9,0.1-1.4,0.1c-0.2,0-0.5,0-0.8-0.1c-0.4-0.1-0.7-0.1-1.1-0.1c-0.4,0-0.6,0-0.7,0h-7.8c-0.1,0-0.1,0-0.2,0.1
		c-0.1,0-0.2,0-0.3,0.1c-0.1,0-0.2,0.1-0.3,0.1c-0.1,0-0.1,0-0.2,0h-3c-0.1,0-0.1,0-0.2,0c0,0-0.1,0-0.1,0.1l-0.4,0.1
		c-0.1,0-0.1,0-0.2,0.1c-0.4,0-0.8,0-1,0c-0.2,0-0.5-0.1-0.7-0.2c-0.2,0-0.5,0-0.9,0c-0.4,0-0.9,0-1.4-0.1c-0.5,0-1-0.1-1.4-0.1
		c-0.4,0-0.7,0-0.9-0.1c-0.2,0-0.5,0.1-0.7,0.1c-0.3,0.1-0.5,0.1-0.6,0.1c-0.1,0-0.2,0.1-0.2,0.2c0,0.1,0,0.3,0,0.5
		c0,0.3,0.1,0.5,0.3,0.6c0.2,0.2,0.4,0.3,0.7,0.4c0.3,0.1,0.5,0.2,0.8,0.2c0.3,0,0.5,0.1,0.7,0.1c0.1,0,0.3,0,0.3,0
		c0.1,0,0.2,0,0.3-0.1c0.1,0,0.2-0.1,0.3-0.1c0.1,0,0.2,0,0.3,0c0.2,0,0.4,0,0.7,0c0.3,0,0.6,0.1,0.8,0.2c0.3,0.1,0.5,0.2,0.8,0.3
		c0.2,0.1,0.4,0.3,0.5,0.5c0,0.1,0,0.3,0,0.5c0,0.2,0,0.5,0.1,0.7c0,0.3,0,0.6,0.1,0.8c0,0.3,0,0.5,0,0.7c0,0.2,0,0.5,0,0.8
		c0,0.3,0,0.5-0.1,0.8c0,0.2-0.1,0.5-0.1,0.8c0,0.3,0,0.5,0,0.8c0,0.3,0,0.6,0.1,0.9c0.1,0.2,0.1,0.3,0.1,0.5c0,0.2,0.1,0.3,0.1,0.4
		c0,0,0,0.1,0,0.2c0,0.1,0,0.2-0.1,0.3c0,0.1-0.1,0.1-0.1,0.2c0,0.1,0,0.1,0,0.2c0,0,0,0.1,0,0.4c0,0.2,0,0.5,0,0.8
		c0,0.3,0,0.6,0,0.9c0,0.3,0,0.5,0,0.7c0,0.2,0,0.4,0,0.5c0,0.2,0.1,0.3,0.1,0.3v2.8c0,0,0,0.1,0,0.3c0,0.1,0,0.3,0.1,0.5
		c0,0.2,0,0.3,0.1,0.5c0,0.2,0,0.3,0.1,0.4c0,0.1,0.1,0.3,0.1,0.5c0,0.2,0.1,0.4,0.1,0.4c0,0.3-0.1,0.7-0.1,1c0,0.3,0,0.7,0,1
		c0,0,0,0.1-0.1,0.1c0,0.1,0,0.1,0,0.2c0,0.5-0.1,0.8-0.1,1.1c0,0.3,0,0.6,0,1c0,0.2,0,0.3,0,0.4c-0.1,0.2-0.1,0.4-0.2,0.6
		c0,0.2-0.1,0.3-0.1,0.5c-0.1,0.7-0.1,1.4-0.1,2.1c0,0.7,0,1.4,0,2.2v1.3c-0.1,0.2-0.2,0.3-0.3,0.4c-0.2,0.1-0.4,0.2-0.6,0.2
		c-0.2,0.1-0.5,0.1-0.7,0.1c-0.2,0-0.5,0-0.7,0h-0.3c0,0-0.1,0-0.3,0c-0.2,0-0.5,0-1.1,0c-0.2,0-0.4,0-0.6,0s-0.4,0-0.5,0
		c-0.3,0-0.6,0.1-0.8,0.4c-0.2,0.3-0.3,0.5-0.3,0.8v0c0,0.1,0.1,0.2,0.1,0.4c0.1,0.2,0.1,0.4,0.2,0.5c0.1,0.2,0.1,0.3,0.2,0.5
		c0.1,0.1,0.1,0.2,0.2,0.2l3.5-0.1h0.5c0.2,0,0.4,0,0.7-0.1c0.3-0.1,0.7-0.1,1-0.2c0.3-0.1,0.5-0.1,0.8-0.2c0.2,0,0.4-0.1,0.4-0.1
		c0,0,0.1,0,0.1,0c0.1,0,0.2,0,0.2-0.1c0.1,0,0.2,0,0.2-0.1c0.1,0,0.1,0,0.2,0c0.2-0.1,0.2-0.1,0.3-0.1c0,0,0.1,0,0.1,0
		c0.1,0,0.2,0,0.4,0.1c0.2,0.1,0.3,0.1,0.5,0.1c0.2,0.1,0.3,0.1,0.5,0.1c0.2,0,0.3,0.1,0.5,0.1h12.2c0.1,0,0.2,0,0.4,0
		c0.2,0,0.5,0,0.7,0c0.3,0,0.5,0,0.7-0.1c0.2,0,0.4,0,0.5-0.1c0,0,0.1,0,0.1,0c0.1,0,0.2,0,0.4-0.1c0.2-0.1,0.3-0.1,0.3-0.1
		c0,0,0,0,0.1,0c0.2,0,0.3,0,0.5,0c0.1,0,0.3,0.1,0.4,0.2h2.2c0.4,0,0.8,0,1.2-0.1c0.4,0,0.8-0.1,1.2-0.3c0.4-0.1,0.7-0.3,1-0.6
		c0.3-0.3,0.5-0.6,0.6-1.1c0-0.4,0.1-0.9,0.1-1.5c0-0.6,0.1-1.2,0.1-1.7v-0.7c0-0.1,0-0.2-0.1-0.4C452.3,68.2,452.2,68,452.2,67.9z"
		/>
	<path d="M486.1,71.5c-0.1-0.2-0.2-0.3-0.3-0.5v-3c0-0.2-0.1-0.3-0.2-0.5c-0.1-0.2-0.2-0.3-0.4-0.5c-0.1-0.1-0.3-0.3-0.5-0.4
		c-0.2-0.1-0.3-0.1-0.4-0.1c-0.3,0-0.6,0.1-0.9,0.4c-0.2,0.3-0.5,0.6-0.7,0.9c-0.2,0.4-0.4,0.7-0.6,1.1c-0.2,0.4-0.4,0.7-0.5,0.9
		c-0.1,0.1-0.2,0.2-0.3,0.3c-0.2,0.2-0.3,0.3-0.5,0.5c-0.2,0.2-0.4,0.4-0.6,0.5c-0.2,0.2-0.3,0.3-0.4,0.4c-0.2,0.2-0.4,0.3-0.7,0.4
		c-0.3,0.1-0.6,0.2-1,0.2c-0.3,0.1-0.7,0.1-1,0.1c-0.3,0-0.6,0.1-0.8,0.2c0,0-0.1,0-0.2,0.1c-0.1,0-0.2,0.1-0.3,0.1
		c-0.1,0-0.2,0.1-0.3,0.1c-0.1,0-0.1,0.1-0.2,0.1c0,0-0.1,0-0.2-0.1c-0.1,0-0.2-0.1-0.3-0.1c-0.1,0-0.2-0.1-0.3-0.1
		c-0.1,0-0.2-0.1-0.2-0.1c0,0-0.2,0-0.4,0c-0.2,0-0.4,0-0.5,0c-0.7,0-1.4,0.1-2.2,0.3c-0.7,0.2-1.5,0.3-2.2,0.3c-0.5,0-0.9,0-1.4,0
		c-0.5,0-0.9-0.1-1.4-0.1h-1.5c0,0-0.1,0-0.3-0.1c-0.2-0.1-0.3-0.1-0.3-0.1h-0.1h-0.2c0,0-0.1,0-0.2,0.1c-0.1,0.1-0.2,0.1-0.3,0.1
		h-0.1h-0.1c0,0-0.1-0.1-0.2-0.1c-0.1-0.1-0.2-0.1-0.2-0.2c-0.1-0.1-0.1-0.1-0.2-0.2c-0.1-0.1-0.1-0.1-0.1-0.2v0
		c0-0.2,0.1-0.5,0.2-0.8c0.2-0.3,0.3-0.7,0.5-1c0.2-0.3,0.4-0.7,0.6-1c0.2-0.3,0.4-0.5,0.5-0.7c0.1-0.1,0.2-0.2,0.3-0.4
		c0.1-0.2,0.2-0.3,0.3-0.5c0.1-0.2,0.2-0.3,0.3-0.4c0.1-0.1,0.1-0.2,0.2-0.2c0,0,0.1-0.1,0.2-0.1c0.1-0.1,0.2-0.2,0.3-0.3
		c0.1-0.1,0.2-0.2,0.3-0.3c0.1-0.1,0.1-0.2,0.1-0.2c0.1,0,0.1-0.2,0.3-0.4c0.1-0.2,0.3-0.4,0.4-0.7c0.1-0.2,0.3-0.5,0.4-0.7
		c0.1-0.2,0.2-0.3,0.2-0.4c0,0,0.1-0.1,0.2-0.2c0.1-0.1,0.2-0.2,0.3-0.3c0.1-0.1,0.2-0.2,0.3-0.3c0.1-0.1,0.2-0.2,0.2-0.2
		c0-0.1,0.1-0.1,0.2-0.3c0.1-0.1,0.2-0.2,0.2-0.3c0,0,0-0.1,0-0.2c0-0.1,0.1-0.2,0.1-0.3c0-0.1,0.1-0.2,0.1-0.3
		c0-0.1,0.1-0.1,0.1-0.1c0.2-0.3,0.4-0.6,0.7-0.9c0.3-0.3,0.5-0.6,0.8-0.8c0,0,0-0.1,0.1-0.1c0-0.1,0.1-0.2,0.1-0.2
		c0-0.1,0.1-0.2,0.1-0.2c0-0.1,0-0.1,0.1-0.1c0.3-0.4,0.6-0.9,0.9-1.4c0.3-0.5,0.6-0.9,0.9-1.3c0,0,0.1-0.1,0.2-0.2
		c0.1-0.1,0.2-0.2,0.3-0.3c0.1-0.1,0.2-0.2,0.3-0.3c0.1-0.1,0.1-0.1,0.1-0.2c0,0,0.1-0.1,0.1-0.2c0.1-0.1,0.1-0.1,0.1-0.2
		c0.1-0.1,0.1-0.2,0.2-0.3c0.1-0.1,0.2-0.3,0.3-0.4c0.1-0.1,0.2-0.2,0.3-0.3s0.1-0.2,0.2-0.2c0-0.1,0.1-0.1,0.2-0.3
		c0.1-0.1,0.2-0.2,0.4-0.4c0.1-0.1,0.3-0.3,0.4-0.4c0.1-0.1,0.2-0.2,0.2-0.3c0,0,0.1-0.1,0.2-0.3c0.1-0.2,0.2-0.4,0.3-0.6
		c0.1-0.2,0.2-0.4,0.3-0.6c0.1-0.2,0.1-0.3,0.2-0.3c0.3-0.4,0.6-0.8,0.9-1.2c0.3-0.3,0.7-0.7,1-1.1c0.1-0.1,0.3-0.3,0.6-0.7
		c0.3-0.4,0.6-0.8,0.9-1.2c0.3-0.4,0.6-0.9,0.9-1.2c0.3-0.4,0.5-0.6,0.5-0.7c0,0,0.1-0.1,0.1-0.1c0.1-0.1,0.1-0.1,0.2-0.2
		c0.1-0.1,0.1-0.1,0.3-0.2c0.1-0.1,0.1-0.1,0.2-0.2c0.1-0.1,0.1-0.2,0.2-0.3c0.1-0.1,0.1-0.2,0.2-0.2c0.1-0.1,0.1-0.1,0.1-0.1
		c0,0,0-0.1,0.1-0.2c0-0.1,0.1-0.3,0.1-0.4c0-0.2,0.1-0.3,0.1-0.5c0-0.2,0.1-0.3,0.1-0.4v-0.1c0-0.2-0.1-0.4-0.2-0.6
		c-0.1-0.2-0.3-0.4-0.5-0.5c-0.2-0.2-0.4-0.3-0.7-0.4c-0.2-0.1-0.5-0.1-0.7-0.1h-0.3c-0.1,0-0.1,0-0.2,0c-0.1,0-0.2,0-0.4,0.1
		c-0.1,0-0.3,0-0.4,0.1c-0.1,0-0.2,0-0.2,0h-7.9c-0.5-0.2-1-0.4-1.4-0.5c-0.5-0.1-1-0.2-1.6-0.2c-0.7,0-1.4,0.1-2,0.2
		c-0.7,0.1-1.3,0.2-2,0.2c-0.4,0-0.7,0-1,0c-0.3,0-0.6-0.1-0.8-0.1c-0.3-0.1-0.5-0.1-0.8-0.2c-0.3-0.1-0.6-0.2-0.9-0.4
		c0,0-0.1,0-0.2-0.1l-0.2-0.1l-0.9-1.6c-0.1,0-0.1,0-0.1,0h-0.1c0,0,0,0-0.1,0c-0.3,0-0.6,0.1-0.8,0.3c-0.2,0.2-0.4,0.4-0.5,0.6
		c-0.2,0.2-0.3,0.5-0.4,0.8c-0.1,0.3-0.2,0.5-0.3,0.8c-0.1,0.1-0.1,0.3-0.2,0.5c-0.1,0.2-0.1,0.3-0.1,0.4c0,0,0,0.1,0,0.3
		c0,0.1,0,0.3-0.1,0.4c0,0.2,0,0.3-0.1,0.4c0,0.1,0,0.2-0.1,0.2c0,0.1,0,0.2-0.1,0.3c-0.1,0.2-0.1,0.4-0.2,0.6
		c-0.1,0.2-0.2,0.4-0.2,0.6c-0.1,0.2-0.1,0.3-0.1,0.3c-0.2,0.5-0.3,1-0.4,1.6c-0.1,0.6-0.2,1.1-0.2,1.6c0,0.2,0,0.4,0.1,0.6
		c0.1,0.1,0.2,0.2,0.5,0.2c0.1,0,0.3-0.1,0.5-0.2c0.2-0.1,0.5-0.2,0.8-0.4c0.3-0.1,0.5-0.3,0.7-0.4c0.2-0.1,0.4-0.2,0.4-0.3
		c0,0,0.1-0.1,0.1-0.2c0.1-0.1,0.1-0.2,0.2-0.4c0.1-0.1,0.1-0.2,0.2-0.4c0.1-0.1,0.1-0.2,0.1-0.2c0,0,0.2-0.1,0.4-0.1
		c0.2-0.1,0.3-0.1,0.4-0.2l0.1-0.2c0-0.1,0-0.1,0.1-0.2c0.2-0.3,0.4-0.6,0.6-0.9c0.2-0.3,0.5-0.6,0.7-0.8c0.3-0.2,0.5-0.4,0.8-0.6
		c0.3-0.2,0.6-0.2,1-0.2c0.5,0,0.9,0,1.4,0.1c0.5,0.1,1,0.1,1.4,0.1h0.2c0.1,0,0.2,0,0.4,0c0.2,0,0.5,0,0.8-0.1c0.3,0,0.5,0,0.8-0.1
		c0.2,0,0.4,0,0.5,0h0.2h0.2c0,0,0.1,0,0.3,0.1c0.2,0.1,0.2,0.1,0.3,0.1h1.2h1.1c0,0,0.1,0,0.2-0.1c0.1-0.1,0.2-0.1,0.2-0.1
		c0,0,0.1,0,0.2,0c0.1,0,0.2,0,0.2,0c0.4,0,0.8,0.1,1.2,0.2c0.4,0.1,0.8,0.2,1.2,0.2c0.1,0,0.1,0.1,0.2,0.2c0,0.1,0,0.2,0,0.2v0.3
		c0,0.4-0.1,0.7-0.2,1c-0.1,0.3-0.3,0.7-0.5,1c-0.2,0.3-0.4,0.6-0.6,0.9c-0.2,0.3-0.4,0.5-0.6,0.8c-0.1,0.1-0.2,0.2-0.3,0.4
		c-0.2,0.2-0.3,0.4-0.5,0.6c-0.2,0.2-0.3,0.4-0.5,0.6c-0.2,0.2-0.2,0.3-0.3,0.4c0,0-0.1,0-0.1,0.1c0,0.1-0.1,0.1-0.1,0.2
		c0,0,0,0.1-0.1,0.3c0,0.2-0.1,0.3-0.1,0.3c0,0,0,0.1-0.1,0.2c-0.1,0.1-0.1,0.2-0.2,0.3c-0.1,0.1-0.1,0.2-0.2,0.3
		c-0.1,0.1-0.1,0.2-0.2,0.2c-0.8,1.1-1.6,2.1-2.3,3.2c-0.8,1-1.5,2.1-2.3,3.2c0,0.1-0.1,0.2-0.2,0.4c-0.1,0.2-0.2,0.3-0.2,0.4
		c-0.4,0.5-0.8,1.1-1.3,1.8c-0.5,0.6-1,1.2-1.4,1.7c0,0-0.1,0.1-0.3,0.2c-0.2,0.1-0.2,0.2-0.3,0.2c0,0.1-0.1,0.2-0.2,0.4
		c-0.1,0.2-0.2,0.5-0.3,0.7c-0.1,0.3-0.3,0.5-0.4,0.8c-0.1,0.3-0.2,0.5-0.3,0.6c-0.1,0.1-0.1,0.2-0.1,0.3c0,0.1,0,0.1-0.1,0.2
		c0,0.1,0,0.1-0.1,0.1c0,0-0.1,0.1-0.2,0.1c0,0-0.1,0.1-0.3,0.2c-0.2,0.1-0.2,0.2-0.2,0.2c0,0-0.1,0.1-0.1,0.2
		c-0.1,0.1-0.1,0.2-0.2,0.3c-0.1,0.1-0.1,0.2-0.2,0.3c-0.1,0.1-0.1,0.1-0.1,0.2c0,0-0.1,0.1-0.3,0.3c-0.1,0.2-0.2,0.3-0.3,0.4
		c-0.3,0.4-0.6,0.8-1,1.3c-0.4,0.5-0.8,1-1.2,1.5c-0.4,0.5-0.7,1.1-0.9,1.6c-0.3,0.5-0.4,1.1-0.4,1.6c0,0.3,0,0.5,0,0.6
		c0,0.2,0.1,0.3,0.1,0.4c0.1,0.1,0.2,0.2,0.3,0.3c0.1,0.1,0.3,0.1,0.6,0.2h3.9c1.4,0,2.8,0,4.1,0c1.4,0,2.7,0,4.1,0
		c1.2,0,2.3,0.1,3.4,0.2c1.1,0.1,2.3,0.2,3.4,0.2c0.3,0,0.6,0,0.9-0.1c0.3-0.1,0.6-0.1,0.9-0.1c0.7,0,1.4,0,2.1,0.1s1.4,0.1,2.1,0.1
		h1.7c0.4-0.1,0.7-0.3,0.9-0.5c0.2-0.2,0.4-0.4,0.5-0.7c0.1-0.3,0.2-0.6,0.3-0.9c0.1-0.3,0.2-0.7,0.3-1v0
		C486.3,71.9,486.2,71.7,486.1,71.5z"/>
</g>
</svg>
